<svg xmlns="http://www.w3.org/2000/svg" width="28.707" height="26.315" viewBox="0 0 28.707 26.315">
  <g id="image" transform="translate(0 -0.492)">
    <path id="Path_2566" data-name="Path 2566" d="M7.475,161.016a4.479,4.479,0,0,1-4.237-3.051l-.042-.138a4.366,4.366,0,0,1-.207-1.3v-8.155l-2.9,9.686a2.717,2.717,0,0,0,1.9,3.3l18.5,4.953a2.743,2.743,0,0,0,.689.088,2.667,2.667,0,0,0,2.585-1.956l1.078-3.427Zm0,0" transform="translate(0 -139.591)" fill="#eceff1"/>
    <path id="Path_2567" data-name="Path 2567" d="M109.243,3.183V16.939a2.7,2.7,0,0,1-2.691,2.691H88.011a3.141,3.141,0,0,1-.347-.024,2.676,2.676,0,0,1-2.332-2.452,1.291,1.291,0,0,1-.012-.215V3.183A2.7,2.7,0,0,1,88.011.492h18.54a2.7,2.7,0,0,1,2.691,2.691Zm0,0" transform="translate(-80.536 0)" fill="#eceff1"/>
    <path id="Path_2568" data-name="Path 2568" d="M154.1,66.884a2.392,2.392,0,1,1-2.392-2.392A2.392,2.392,0,0,1,154.1,66.884Zm0,0" transform="translate(-140.948 -60.411)" fill="#ffc107"/>
    <path id="Path_2569" data-name="Path 2569" d="M148.711,117.689v3.361a2.7,2.7,0,0,1-2.691,2.691h-18.54a3.143,3.143,0,0,1-.347-.024l12.32-12.32a2.108,2.108,0,0,1,2.966,0Zm0,0" transform="translate(-120.004 -104.111)" fill="#158fbc"/>
    <path id="Path_2570" data-name="Path 2570" d="M102.342,194.222H88.215a3.139,3.139,0,0,1-.347-.024,2.676,2.676,0,0,1-2.332-2.452l5.682-5.682a2.108,2.108,0,0,1,2.966,0Zm0,0" transform="translate(-80.74 -174.591)" fill="#006097"/>
  </g>
</svg>
