<svg id="calendar" xmlns="http://www.w3.org/2000/svg" width="26" height="26" viewBox="0 0 26 26">
  <path id="Path_2571" data-name="Path 2571" d="M22.953,32.285V34.57L21.43,36.145H1.523L0,34.57V32.285A2.282,2.282,0,0,1,2.285,30H20.668A2.282,2.282,0,0,1,22.953,32.285Z" transform="translate(0 -28.477)" fill="#ff1a56"/>
  <path id="Path_2572" data-name="Path 2572" d="M237.477,32.285V34.57l-1.523,1.574H226V30h9.191A2.282,2.282,0,0,1,237.477,32.285Z" transform="translate(-214.523 -28.477)" fill="#d81e46"/>
  <path id="Path_2573" data-name="Path 2573" d="M22.953,120v14.574a2.282,2.282,0,0,1-2.285,2.285H2.285A2.282,2.282,0,0,1,0,134.574V120Z" transform="translate(0 -113.906)" fill="#e1e4fb"/>
  <path id="Path_2574" data-name="Path 2574" d="M237.477,120v14.574a2.282,2.282,0,0,1-2.285,2.285H226V120Z" transform="translate(-214.523 -113.906)" fill="#c5c9f7"/>
  <path id="Path_2575" data-name="Path 2575" d="M307.332,302a5.332,5.332,0,1,0,5.332,5.332A5.338,5.338,0,0,0,307.332,302Z" transform="translate(-286.664 -286.664)" fill="#17ace8"/>
  <path id="Path_2576" data-name="Path 2576" d="M305.809,186.57h-3.047a.761.761,0,0,1-.762-.762v-3.047a.761.761,0,0,1,.762-.762h3.047a.761.761,0,0,1,.762.762v3.047A.761.761,0,0,1,305.809,186.57Z" transform="translate(-286.664 -172.758)" fill="#a8aff1"/>
  <path id="Path_2577" data-name="Path 2577" d="M304.285,0A2.282,2.282,0,0,0,302,2.285V3.809a.754.754,0,0,0,.762.762h3.047a.754.754,0,0,0,.762-.762V2.285A2.282,2.282,0,0,0,304.285,0Z" transform="translate(-286.664)" fill="#495a79"/>
  <g id="Group_3631" data-name="Group 3631" transform="translate(3.047 9.242)">
    <path id="Path_2578" data-name="Path 2578" d="M63.809,186.57H60.762a.761.761,0,0,1-.762-.762v-3.047a.761.761,0,0,1,.762-.762h3.047a.761.761,0,0,1,.762.762v3.047A.761.761,0,0,1,63.809,186.57Z" transform="translate(-60 -182)" fill="#c5c9f7"/>
    <path id="Path_2579" data-name="Path 2579" d="M63.809,306.57H60.762a.761.761,0,0,1-.762-.762v-3.047a.761.761,0,0,1,.762-.762h3.047a.761.761,0,0,1,.762.762v3.047A.761.761,0,0,1,63.809,306.57Z" transform="translate(-60 -295.906)" fill="#c5c9f7"/>
  </g>
  <path id="Path_2580" data-name="Path 2580" d="M412.332,307.332A5.338,5.338,0,0,1,407,312.664V302A5.338,5.338,0,0,1,412.332,307.332Z" transform="translate(-386.332 -286.664)" fill="#1689fc"/>
  <path id="Path_2581" data-name="Path 2581" d="M183.91,182h-3.148a.754.754,0,0,0-.762.762v3.047a.754.754,0,0,0,.762.762h3.148a.754.754,0,0,0,.762-.762v-3.047A.754.754,0,0,0,183.91,182Z" transform="translate(-170.859 -172.758)" fill="#c5c9f7"/>
  <path id="Path_2582" data-name="Path 2582" d="M228.336,182.762v3.047a.754.754,0,0,1-.762.762H226V182h1.574A.754.754,0,0,1,228.336,182.762Z" transform="translate(-214.523 -172.758)" fill="#a8aff1"/>
  <path id="Path_2583" data-name="Path 2583" d="M183.91,302h-3.148a.754.754,0,0,0-.762.762v3.047a.754.754,0,0,0,.762.762h3.148a.754.754,0,0,0,.762-.762v-3.047A.754.754,0,0,0,183.91,302Z" transform="translate(-170.859 -286.664)" fill="#c5c9f7"/>
  <path id="Path_2584" data-name="Path 2584" d="M228.336,302.762v3.047a.754.754,0,0,1-.762.762H226V302h1.574A.754.754,0,0,1,228.336,302.762Z" transform="translate(-214.523 -286.664)" fill="#a8aff1"/>
  <path id="Path_2585" data-name="Path 2585" d="M349.285,2.285V3.809a.754.754,0,0,1-.762.762H347V0A2.282,2.282,0,0,1,349.285,2.285Z" transform="translate(-329.379)" fill="#42516d"/>
  <path id="Path_2586" data-name="Path 2586" d="M62.285,0A2.282,2.282,0,0,0,60,2.285V3.809a.754.754,0,0,0,.762.762h3.047a.754.754,0,0,0,.762-.762V2.285A2.282,2.282,0,0,0,62.285,0Z" transform="translate(-56.953)" fill="#495a79"/>
  <path id="Path_2587" data-name="Path 2587" d="M107.285,2.285V3.809a.754.754,0,0,1-.762.762H105V0A2.282,2.282,0,0,1,107.285,2.285Z" transform="translate(-99.668)" fill="#42516d"/>
  <path id="Path_2588" data-name="Path 2588" d="M365.047,332.762v3.047a.714.714,0,0,1-.229.533l-.533.533-.99.99a.754.754,0,0,1-1.066-1.066l1.295-1.31v-2.727a.762.762,0,0,1,1.523,0Z" transform="translate(-343.617 -315.141)" fill="#e1e4fb"/>
  <path id="Path_2589" data-name="Path 2589" d="M407.762,332.762v3.047a.714.714,0,0,1-.229.533l-.533.533V332A.754.754,0,0,1,407.762,332.762Z" transform="translate(-386.332 -315.141)" fill="#c5c9f7"/>
</svg>
