<svg xmlns="http://www.w3.org/2000/svg" width="190" height="190" viewBox="0 0 190 190">
  <g id="robot" transform="translate(0)">
    <path id="Path_87" data-name="Path 87" d="M163.281,151.932v6.678a5.88,5.88,0,0,1-1.757,4.2,95.356,95.356,0,0,1-13.4,10.95,2.8,2.8,0,0,1-3.044.07,95.06,95.06,0,0,0-99.763-.246,3.525,3.525,0,0,1-3.836-.09,95.364,95.364,0,0,1-13.1-10.781,7.98,7.98,0,0,1-2.4-5.685v-5.9A13.822,13.822,0,0,0,12.155,137.3a3.563,3.563,0,0,1-3.225-2.047A95.039,95.039,0,0,1,94.891,0c46.21-.052,84.916,33.192,93.43,77.2a95.2,95.2,0,0,1-7.281,58.123,3.459,3.459,0,0,1-3.131,1.986,14.628,14.628,0,0,0-14.628,14.628Zm0,0" transform="translate(0 0)" fill="none"/>
    <path id="Path_88" data-name="Path 88" d="M245.687,244.844A14.844,14.844,0,1,1,230.844,230,14.845,14.845,0,0,1,245.687,244.844Zm0,0" transform="translate(-135.844 -144.648)" fill="#0995a3"/>
    <path id="Path_89" data-name="Path 89" d="M280.82,7.422a7.416,7.416,0,0,1-13.383,4.41,26.016,26.016,0,0,0-20.016,25.278H240A33.455,33.455,0,0,1,266.623,4.4a7.419,7.419,0,0,1,14.2,3.019Zm0,0" transform="translate(-150.938 0)" fill="#013f69"/>
    <path id="Path_90" data-name="Path 90" d="M326.711,5A3.711,3.711,0,1,1,323,8.711,3.711,3.711,0,0,1,326.711,5Zm0,0" transform="translate(-203.137 -3.145)" fill="#015081"/>
    <path id="Path_91" data-name="Path 91" d="M144.984,143.262H74.476a37.109,37.109,0,0,1-37.109-37.109v-3.711A37.11,37.11,0,0,1,74.476,65.332h70.508a37.11,37.11,0,0,1,37.109,37.109v3.711A37.109,37.109,0,0,1,144.984,143.262Zm51.206,33.033a95.228,95.228,0,0,1-19.6,27.635l-12.577-12.575c-.132-.132-.258-.268-.384-.4V208.08a37.31,37.31,0,0,1-.649,6.936,95.03,95.03,0,0,1-106.505-.5,37.332,37.332,0,0,1-.557-6.432V191.618L43.608,203.93a95.229,95.229,0,0,1-19.6-27.635l8.557-8.557a14.814,14.814,0,0,1,12.243-4.24,14.842,14.842,0,0,1,28.341-5.313,36.933,36.933,0,0,1,19.878-5.769h33.494a36.945,36.945,0,0,1,22.748,7.791,14.842,14.842,0,0,1,29.082,3.237,14.779,14.779,0,0,1,9.279,4.294Zm0,0" transform="translate(-15.101 -41.088)" fill="#0cabb9"/>
    <path id="Path_92" data-name="Path 92" d="M98.36,143.262a37.108,37.108,0,0,1-37.109-37.109v-3.711A37.109,37.109,0,0,1,98.36,65.332H154.4A37.109,37.109,0,0,1,191.5,102.441v3.711A37.108,37.108,0,0,1,154.4,143.262ZM69.044,179.153a14.838,14.838,0,0,1-12.793-7.316,14.756,14.756,0,0,0-6.4,3.773L38.976,186.487A95.523,95.523,0,0,0,53.02,203.93L65.6,191.355a14.815,14.815,0,0,0,4.246-12.224c-.265.014-.531.023-.8.023Zm128-11.415a14.783,14.783,0,0,0-9.279-4.3c.017.287.028.575.028.868a14.848,14.848,0,0,1-9.863,13.984,14.758,14.758,0,0,0,3.37,5.188l12.194,12.2A95.009,95.009,0,0,0,205.6,176.295Zm-38.939-3.428a14.869,14.869,0,0,1,.628-4.276,36.938,36.938,0,0,0-22.522-7.618H117.286a37.108,37.108,0,0,0-37.109,37.109V208.08a36.959,36.959,0,0,0,3.652,16.07,95.124,95.124,0,0,0,88.883-9.344,37.267,37.267,0,0,0,.61-6.726V189.525a37.158,37.158,0,0,0-1.484-10.418,14.842,14.842,0,0,1-13.73-14.8Zm0,0" transform="translate(-24.513 -41.088)" fill="#2abbc7"/>
    <path id="Path_93" data-name="Path 93" d="M205.527,138.73H141.7a16.7,16.7,0,1,1,0-33.4h63.828a16.7,16.7,0,0,1,0,33.4Zm0,0" transform="translate(-78.613 -66.244)" fill="#013f69"/>
    <path id="Path_94" data-name="Path 94" d="M221.25,138.73H166.7a16.7,16.7,0,0,1,0-33.4H221.25a16.7,16.7,0,0,1,0,33.4Zm0,0" transform="translate(-94.336 -66.244)" fill="#015081"/>
    <path id="Path_95" data-name="Path 95" d="M179.277,125.332a9.277,9.277,0,1,0,9.277,9.277A9.278,9.278,0,0,0,179.277,125.332Zm0,12.988a3.711,3.711,0,1,1,3.711-3.711A3.711,3.711,0,0,1,179.277,138.32Zm44.531-12.988a9.277,9.277,0,1,0,9.277,9.277A9.278,9.278,0,0,0,223.809,125.332Zm0,12.988a3.711,3.711,0,1,1,3.711-3.711A3.711,3.711,0,0,1,223.809,138.32Zm0,0" transform="translate(-106.914 -78.822)" fill="#84deea"/>
    <path id="Path_96" data-name="Path 96" d="M114.844,319.473a7.422,7.422,0,1,1-7.422-7.422A7.422,7.422,0,0,1,114.844,319.473Zm96.484-7.422a7.422,7.422,0,1,0,7.422,7.422A7.421,7.421,0,0,0,211.328,312.051Zm0,0" transform="translate(-62.891 -196.251)" fill="#84deea"/>
    <path id="Path_97" data-name="Path 97" d="M126.361,320.394a7.419,7.419,0,0,1-4.639,6.877,7.459,7.459,0,0,1-3.3-2.635.6.6,0,0,1,.506-.934h.012a3.309,3.309,0,1,0-.02-6.617.592.592,0,0,1-.5-.932,7.449,7.449,0,0,1,3.3-2.637A7.421,7.421,0,0,1,126.361,320.394Zm99.268-6.878a7.437,7.437,0,0,0-3.3,2.637.592.592,0,0,0,.5.932,3.4,3.4,0,0,1,.831.1,3.309,3.309,0,0,1-.809,6.517h-.013a.6.6,0,0,0-.5.934,7.423,7.423,0,0,0,3.3,2.635,7.418,7.418,0,0,0,0-13.755Zm0,0" transform="translate(-74.407 -197.172)" fill="#d3f1f5"/>
    <path id="Path_98" data-name="Path 98" d="M304.844,330a3.711,3.711,0,1,1-3.711,3.711A3.711,3.711,0,0,1,304.844,330ZM290,333.711A3.711,3.711,0,1,0,293.711,330,3.711,3.711,0,0,0,290,333.711Zm0,0" transform="translate(-182.383 -207.539)" fill="#0995a3"/>
    <path id="Path_99" data-name="Path 99" d="M263.711,330A3.711,3.711,0,1,1,260,333.711,3.711,3.711,0,0,1,263.711,330Zm0,0" transform="translate(-163.516 -207.539)" fill="#84deea"/>
  </g>
</svg>
