<svg xmlns="http://www.w3.org/2000/svg" width="69.829" height="65.897" viewBox="0 0 69.829 65.897">
  <g id="Landingpage" transform="translate(-1215.786 -3096.071)">
    <g id="Group-8" transform="translate(76 3060)">
      <g id="Icons-_-Categories-_-Grants-and-Philanthropy" data-name="Icons-/-Categories-/-Grants-and-Philanthropy" transform="translate(1136 28)">
        <g id="Fill-1">
          <path id="Path_214" data-name="Path 214" d="M34.2,53.616l7.36,3.68,6.133,1.227,1.227-3.68L36.65,47.482,24.383,48.709v11.04H29.29l14.72,4.907,20.854-9.813-1.227-2.453-15.236,4"/>
          <path id="Path_215" data-name="Path 215" d="M34.2,53.616l7.36,3.68,6.133,1.227,1.227-3.68L36.65,47.482,24.383,48.709v11.04H29.29l14.72,4.907,20.854-9.813-1.227-2.453-15.236,4" fill="rgba(242,242,249,0)" stroke="#f2f2f9" stroke-linecap="round" stroke-linejoin="round" stroke-width="1"/>
          <path id="Path_216" data-name="Path 216" d="M34.2,53.616l7.36,3.68,6.133,1.227,1.227-3.68L36.65,47.482,24.383,48.709v11.04H29.29l14.72,4.907,20.854-9.813-1.227-2.453-15.236,4" fill="none" stroke="#fff" stroke-linecap="round" stroke-linejoin="round" stroke-width="0.5"/>
        </g>
        <g id="Stroke-4">
          <path id="Path_217" data-name="Path 217" d="M12.116,62.2H24.383V46.256H12.116Z"/>
          <path id="Path_218" data-name="Path 218" d="M12.116,62.2H24.383V46.256H12.116Z" fill="rgba(242,242,249,0)" stroke="#f2f2f9" stroke-linecap="round" stroke-linejoin="round" stroke-width="1"/>
          <path id="Path_219" data-name="Path 219" d="M12.116,62.2H24.383V46.256H12.116Z" fill="none" stroke="#fff" stroke-linecap="round" stroke-linejoin="round" stroke-width="0.5"/>
        </g>
        <path id="Fill-5" d="M72.387,67.477a3.68,3.68,0,1,1-3.68-3.68,3.681,3.681,0,0,1,3.68,3.68" fill="none" stroke="#0ea0f3" stroke-linejoin="round" stroke-width="1" fill-rule="evenodd"/>
        <path id="Fill-9" d="M73.115,15.912a2.453,2.453,0,1,1-2.453-2.453,2.453,2.453,0,0,1,2.453,2.453" fill="none" stroke="rgba(111,76,255,0.64)" stroke-linejoin="round" stroke-width="1" fill-rule="evenodd"/>
        <path id="Stroke-11" d="M73.115,15.912a2.453,2.453,0,1,1-2.453-2.453A2.453,2.453,0,0,1,73.115,15.912Z" fill="none" stroke="#0ea0f3" stroke-linejoin="round" stroke-width="1" fill-rule="evenodd"/>
        <path id="Fill-13" d="M9.192,71.015a2.453,2.453,0,1,1-2.453-2.453,2.453,2.453,0,0,1,2.453,2.453" fill="none" stroke="#0ea0f3" stroke-linejoin="round" stroke-width="1" fill-rule="evenodd"/>
        <path id="Fill-13-Copy" d="M18.571,57.857a2.143,2.143,0,1,1-2.143-2.143,2.143,2.143,0,0,1,2.143,2.143" fill="none" stroke="rgba(255,255,255,0.32)" stroke-linejoin="round" stroke-width="1" fill-rule="evenodd"/>
        <path id="Stroke-17" d="M23.759,20.933c0,5.081-2.06,9.2-4.6,9.2s-4.6-4.119-4.6-9.2,2.06-9.2,4.6-9.2S23.759,15.852,23.759,20.933Z" fill="none" stroke="rgba(255,255,255,0.32)" stroke-linejoin="round" stroke-width="1" fill-rule="evenodd"/>
        <g id="Fill-19">
          <path id="Path_220" data-name="Path 220" d="M28.359,20.933a9.2,9.2,0,1,1-9.2-9.2,9.2,9.2,0,0,1,9.2,9.2"/>
          <path id="Path_221" data-name="Path 221" d="M28.359,20.933a9.2,9.2,0,1,1-9.2-9.2,9.2,9.2,0,0,1,9.2,9.2" fill="rgba(242,242,249,0)" stroke="#f2f2f9" stroke-linecap="round" stroke-linejoin="round" stroke-width="1"/>
          <path id="Path_222" data-name="Path 222" d="M28.359,20.933a9.2,9.2,0,1,1-9.2-9.2,9.2,9.2,0,0,1,9.2,9.2" fill="none" stroke="#fff" stroke-linecap="round" stroke-linejoin="round" stroke-width="0.5"/>
        </g>
        <g id="Fill-29">
          <path id="Path_223" data-name="Path 223" d="M37.109,41.656H70.843V26.322H37.109Z"/>
          <path id="Path_224" data-name="Path 224" d="M37.109,41.656H70.843V26.322H37.109Z" fill="rgba(242,242,249,0)" stroke="#f2f2f9" stroke-linecap="round" stroke-linejoin="round" stroke-width="1"/>
          <path id="Path_225" data-name="Path 225" d="M37.109,41.656H70.843V26.322H37.109Z" fill="none" stroke="#fff" stroke-linecap="round" stroke-linejoin="round" stroke-width="0.5"/>
        </g>
        <path id="Stroke-32" d="M64.709,38.589a3.066,3.066,0,0,1,3.067-3.067V32.455a3.066,3.066,0,0,1-3.067-3.067H43.242a3.067,3.067,0,0,1-3.067,3.067v3.067a3.067,3.067,0,0,1,3.067,3.067Z" fill="none" stroke="rgba(14,160,243,0.75)" stroke-linejoin="round" stroke-width="1" fill-rule="evenodd"/>
        <path id="Stroke-33" d="M58.576,33.988a4.6,4.6,0,1,1-4.6-4.6A4.6,4.6,0,0,1,58.576,33.988Z" fill="none" stroke="rgba(14,160,243,0.75)" stroke-linejoin="round" stroke-width="1" fill-rule="evenodd"/>
        <path id="Stroke-35" d="M43.571,8.571a5,5,0,0,1-5,5,5,5,0,0,1,5,5,5,5,0,0,1,5-5A5,5,0,0,1,43.571,8.571Z" fill="none" stroke="#0ea0f3" stroke-linejoin="round" stroke-width="1" fill-rule="evenodd"/>
        <line id="Stroke-25" x2="17.353" transform="translate(10.482 17.866)" fill="none" stroke="rgba(255,255,255,0.32)" stroke-linejoin="round" stroke-width="1"/>
        <line id="Stroke-27" x2="17.353" transform="translate(10.482 23.999)" fill="none" stroke="rgba(255,255,255,0.32)" stroke-linejoin="round" stroke-width="1"/>
      </g>
    </g>
  </g>
</svg>
