<svg xmlns="http://www.w3.org/2000/svg" width="66.214" height="68.056" viewBox="0 0 66.214 68.056">
  <g id="Landing-page" transform="translate(-19.5 -17.786)">
    <g id="Landingpage" transform="translate(-922 -3074)">
      <g id="Group-8" transform="translate(76 3060)">
        <g id="Icons-_-Categories-_-Governance-_-Governance" data-name="Icons-/-Categories-/-Governance-/-Governance" transform="translate(856 28)">
          <g id="Path">
            <path id="Path_202" data-name="Path 202" d="M39.634,20.456V4.286"/>
            <path id="Path_203" data-name="Path 203" d="M39.634,20.456V4.286" fill="rgba(242,242,249,0)" stroke="#f2f2f9" stroke-linecap="round" stroke-linejoin="round" stroke-width="1"/>
            <path id="Path_204" data-name="Path 204" d="M39.634,20.456V4.286" fill="none" stroke="#fff" stroke-linecap="round" stroke-linejoin="round" stroke-width="0.5"/>
          </g>
          <g id="Path-2" data-name="Path">
            <path id="Path_205" data-name="Path 205" d="M53.768,34.554H22.633A2.867,2.867,0,0,1,25.5,37.42v8.3H53.768v-8.3a2.867,2.867,0,0,1,2.867-2.867Z"/>
            <path id="Path_206" data-name="Path 206" d="M53.768,34.554H22.633A2.867,2.867,0,0,1,25.5,37.42v8.3H53.768v-8.3a2.867,2.867,0,0,1,2.867-2.867Z" fill="rgba(242,242,249,0)" stroke="#f2f2f9" stroke-linecap="round" stroke-linejoin="round" stroke-width="1"/>
            <path id="Path_207" data-name="Path 207" d="M53.768,34.554H22.633A2.867,2.867,0,0,1,25.5,37.42v8.3H53.768v-8.3a2.867,2.867,0,0,1,2.867-2.867Z" fill="none" stroke="#fff" stroke-linecap="round" stroke-linejoin="round" stroke-width="0.5"/>
          </g>
          <g id="Path-3" data-name="Path">
            <path id="Path_208" data-name="Path 208" d="M39.634,20.456h0a11.3,11.3,0,0,0-11.3,11.3h22.61a11.3,11.3,0,0,0-11.3-11.3Z"/>
            <path id="Path_209" data-name="Path 209" d="M39.634,20.456h0a11.3,11.3,0,0,0-11.3,11.3h22.61a11.3,11.3,0,0,0-11.3-11.3Z" fill="rgba(242,242,249,0)" stroke="#f2f2f9" stroke-linecap="round" stroke-linejoin="round" stroke-width="1"/>
            <path id="Path_210" data-name="Path 210" d="M39.634,20.456h0a11.3,11.3,0,0,0-11.3,11.3h22.61a11.3,11.3,0,0,0-11.3-11.3Z" fill="none" stroke="#fff" stroke-linecap="round" stroke-linejoin="round" stroke-width="0.5"/>
          </g>
          <g id="Rectangle">
            <rect id="Rectangle_1240" data-name="Rectangle 1240" width="34.002" height="2.792" transform="translate(22.633 31.761)"/>
            <rect id="Rectangle_1241" data-name="Rectangle 1241" width="34.002" height="2.792" transform="translate(22.633 31.761)" fill="rgba(242,242,249,0)" stroke="#f2f2f9" stroke-linecap="round" stroke-linejoin="round" stroke-width="1"/>
            <rect id="Rectangle_1242" data-name="Rectangle 1242" width="34.002" height="2.792" transform="translate(22.633 31.761)" fill="none" stroke="#fff" stroke-linecap="round" stroke-linejoin="round" stroke-width="0.5"/>
          </g>
          <path id="Path-4" data-name="Path" d="M39.634,37.781l-5.258,7.94H44.891Z" fill="none" stroke="rgba(255,255,255,0.32)" stroke-linejoin="round" stroke-width="1" fill-rule="evenodd"/>
          <g id="Path-5" data-name="Path">
            <path id="Path_211" data-name="Path 211" d="M64.978,48.514H11.429a2.863,2.863,0,0,1,2.861,2.81V71.342h4.055V56.868A2.366,2.366,0,0,1,20.71,54.5h0a2.366,2.366,0,0,1,2.366,2.366V71.342h4.731V56.868a2.366,2.366,0,1,1,4.731,0V71.342h4.731V56.868a2.366,2.366,0,1,1,4.731,0V71.342H46.73V56.868a2.365,2.365,0,1,1,4.731,0V71.342h4.731V56.868a2.365,2.365,0,1,1,4.731,0V71.342h4.055V51.321a2.864,2.864,0,0,1,2.861-2.808Z"/>
            <path id="Path_212" data-name="Path 212" d="M64.978,48.514H11.429a2.863,2.863,0,0,1,2.861,2.81V71.342h4.055V56.868A2.366,2.366,0,0,1,20.71,54.5h0a2.366,2.366,0,0,1,2.366,2.366V71.342h4.731V56.868a2.366,2.366,0,1,1,4.731,0V71.342h4.731V56.868a2.366,2.366,0,1,1,4.731,0V71.342H46.73V56.868a2.365,2.365,0,1,1,4.731,0V71.342h4.731V56.868a2.365,2.365,0,1,1,4.731,0V71.342h4.055V51.321a2.864,2.864,0,0,1,2.861-2.808Z" fill="rgba(242,242,249,0)" stroke="#f2f2f9" stroke-linecap="round" stroke-linejoin="round" stroke-width="1"/>
            <path id="Path_213" data-name="Path 213" d="M64.978,48.514H11.429a2.863,2.863,0,0,1,2.861,2.81V71.342h4.055V56.868A2.366,2.366,0,0,1,20.71,54.5h0a2.366,2.366,0,0,1,2.366,2.366V71.342h4.731V56.868a2.366,2.366,0,1,1,4.731,0V71.342h4.731V56.868a2.366,2.366,0,1,1,4.731,0V71.342H46.73V56.868a2.365,2.365,0,1,1,4.731,0V71.342h4.731V56.868a2.365,2.365,0,1,1,4.731,0V71.342h4.055V51.321a2.864,2.864,0,0,1,2.861-2.808Z" fill="none" stroke="#fff" stroke-linecap="round" stroke-linejoin="round" stroke-width="0.5"/>
          </g>
          <g id="Rectangle-2" data-name="Rectangle">
            <rect id="Rectangle_1243" data-name="Rectangle 1243" width="56.411" height="2.792" transform="translate(11.429 45.721)"/>
            <rect id="Rectangle_1244" data-name="Rectangle 1244" width="56.411" height="2.792" transform="translate(11.429 45.721)" fill="rgba(242,242,249,0)" stroke="#f2f2f9" stroke-linecap="round" stroke-linejoin="round" stroke-width="1"/>
            <rect id="Rectangle_1245" data-name="Rectangle 1245" width="56.411" height="2.792" transform="translate(11.429 45.721)" fill="none" stroke="#fff" stroke-linecap="round" stroke-linejoin="round" stroke-width="0.5"/>
          </g>
          <path id="Stroke-35-Copy-2" d="M61.429,10a7.145,7.145,0,0,1-7.143,7.144,7.145,7.145,0,0,1,7.143,7.144,7.144,7.144,0,0,1,7.143-7.144A7.144,7.144,0,0,1,61.429,10Z" fill="none" stroke="#0ea0f3" stroke-linejoin="round" stroke-width="1" fill-rule="evenodd"/>
          <line id="Path-6" data-name="Path" y2="7.564" transform="translate(71.955 49.672)" fill="none" stroke="#0ea0f3" stroke-linejoin="round" stroke-width="1"/>
          <line id="Path-7" data-name="Path" x1="7.519" transform="translate(68.196 53.454)" fill="none" stroke="#0ea0f3" stroke-linejoin="round" stroke-width="1"/>
          <ellipse id="Oval" cx="3.759" cy="3.762" rx="3.759" ry="3.762" transform="translate(14.286 15.714)" fill="none" stroke="rgba(255,255,255,0.32)" stroke-linejoin="round" stroke-width="1"/>
          <ellipse id="Oval-2" data-name="Oval" cx="1.88" cy="1.881" rx="1.88" ry="1.881" transform="translate(65.714 30)" fill="none" stroke="rgba(255,255,255,0.32)" stroke-linejoin="round" stroke-width="1"/>
          <ellipse id="Oval-3" data-name="Oval" cx="1.88" cy="1.881" rx="1.88" ry="1.881" transform="translate(10 35.714)" fill="none" stroke="rgba(14,160,243,0.56)" stroke-linejoin="round" stroke-width="1"/>
        </g>
      </g>
    </g>
  </g>
</svg>
