<svg xmlns="http://www.w3.org/2000/svg" width="85.926" height="79.71" viewBox="0 0 85.926 79.71">
  <g id="Landingpage" transform="translate(0.5 0.353)">
    <g id="Group-8" transform="translate(0 0)">
      <g id="Icons-_-Categories-_-Marketplaces" data-name="Icons-/-Categories-/-Marketplaces" transform="translate(0 0)">
        <path id="Path" d="M12.515,22.637l-4.47-4.473,4.47-4.473" transform="translate(-3.575 -4.745)" fill="none" stroke="#0ea0f3" stroke-linejoin="round" stroke-width="1" fill-rule="evenodd"/>
        <path id="Path-2" data-name="Path" d="M23.083,6.167l4.47,4.473-4.47,4.473" transform="translate(-0.734 -6.167)" fill="none" stroke="#0ea0f3" stroke-linejoin="round" stroke-width="1" fill-rule="evenodd"/>
        <g id="Oval" transform="translate(24.584 54.256)">
          <ellipse id="Ellipse_1" data-name="Ellipse 1" cx="3.352" cy="3.355" rx="3.352" ry="3.355"/>
          <ellipse id="Ellipse_2" data-name="Ellipse 2" cx="3.352" cy="3.355" rx="3.352" ry="3.355" fill="rgba(242,242,249,0)" stroke="#f2f2f9" stroke-linecap="round" stroke-linejoin="round" stroke-width="1"/>
          <ellipse id="Ellipse_3" data-name="Ellipse 3" cx="3.352" cy="3.355" rx="3.352" ry="3.355" fill="none" stroke="#fff" stroke-linecap="round" stroke-linejoin="round" stroke-width="0.5"/>
        </g>
        <g id="Oval-2" data-name="Oval" transform="translate(49.168 55.374)">
          <ellipse id="Ellipse_4" data-name="Ellipse 4" cx="3.352" cy="3.355" rx="3.352" ry="3.355"/>
          <ellipse id="Ellipse_5" data-name="Ellipse 5" cx="3.352" cy="3.355" rx="3.352" ry="3.355" fill="rgba(242,242,249,0)" stroke="#f2f2f9" stroke-linecap="round" stroke-linejoin="round" stroke-width="1"/>
          <ellipse id="Ellipse_6" data-name="Ellipse 6" cx="3.352" cy="3.355" rx="3.352" ry="3.355" fill="none" stroke="#fff" stroke-linecap="round" stroke-linejoin="round" stroke-width="0.5"/>
        </g>
        <g id="Path-3" data-name="Path" transform="translate(31.289 57.61)">
          <path id="Path_11" data-name="Path 11" d="M30.6,54.621H48.481" transform="translate(-30.601 -54.621)"/>
          <path id="Path_12" data-name="Path 12" d="M30.6,54.621H48.481" transform="translate(-30.601 -54.621)" fill="rgba(242,242,249,0)" stroke="#f2f2f9" stroke-linecap="round" stroke-linejoin="round" stroke-width="1"/>
          <path id="Path_13" data-name="Path 13" d="M30.6,54.621H48.481" transform="translate(-30.601 -54.621)" fill="none" stroke="#fff" stroke-linecap="round" stroke-linejoin="round" stroke-width="0.5"/>
        </g>
        <g id="Path-4" data-name="Path" transform="translate(18.684 23.241)">
          <path id="Path_14" data-name="Path 14" d="M30.929,57.178l1.81-2.588L24.246,25.714H20" transform="translate(-20 -25.714)"/>
          <path id="Path_15" data-name="Path 15" d="M30.929,57.178l1.81-2.588L24.246,25.714H20" transform="translate(-20 -25.714)" fill="rgba(242,242,249,0)" stroke="#f2f2f9" stroke-linecap="round" stroke-linejoin="round" stroke-width="1"/>
          <path id="Path_16" data-name="Path 16" d="M30.929,57.178l1.81-2.588L24.246,25.714H20" transform="translate(-20 -25.714)" fill="none" stroke="#fff" stroke-linecap="round" stroke-linejoin="round" stroke-width="0.5"/>
        </g>
        <g id="Path-5" data-name="Path" transform="translate(25.478 31.734)">
          <path id="Path_17" data-name="Path 17" d="M59.685,46.445V32.857H25.714l5.945,20.382Z" transform="translate(-25.714 -32.857)"/>
          <path id="Path_18" data-name="Path 18" d="M59.685,46.445V32.857H25.714l5.945,20.382Z" transform="translate(-25.714 -32.857)" fill="rgba(242,242,249,0)" stroke="#f2f2f9" stroke-linecap="round" stroke-linejoin="round" stroke-width="1"/>
          <path id="Path_19" data-name="Path 19" d="M59.685,46.445V32.857H25.714l5.945,20.382Z" transform="translate(-25.714 -32.857)" fill="none" stroke="#fff" stroke-linecap="round" stroke-linejoin="round" stroke-width="0.5"/>
        </g>
        <g id="Rectangle" transform="translate(59.806 7.87)">
          <rect id="Rectangle_1211" data-name="Rectangle 1211" width="13.409" height="13.419"/>
          <rect id="Rectangle_1212" data-name="Rectangle 1212" width="13.409" height="13.419" fill="rgba(242,242,249,0)" stroke="#f2f2f9" stroke-linecap="round" stroke-linejoin="round" stroke-width="1"/>
          <rect id="Rectangle_1213" data-name="Rectangle 1213" width="13.409" height="13.419" fill="none" stroke="#fff" stroke-linecap="round" stroke-linejoin="round" stroke-width="0.5"/>
        </g>
        <g id="Path-6" data-name="Path" transform="translate(64.276 1.161)">
          <path id="Path_20" data-name="Path 20" d="M58.346,13.852V9.379a2.235,2.235,0,1,1,4.47,0v4.473" transform="translate(-58.346 -7.143)"/>
          <path id="Path_21" data-name="Path 21" d="M58.346,13.852V9.379a2.235,2.235,0,1,1,4.47,0v4.473" transform="translate(-58.346 -7.143)" fill="rgba(242,242,249,0)" stroke="#f2f2f9" stroke-linecap="round" stroke-linejoin="round" stroke-width="1"/>
          <path id="Path_22" data-name="Path 22" d="M58.346,13.852V9.379a2.235,2.235,0,1,1,4.47,0v4.473" transform="translate(-58.346 -7.143)" fill="none" stroke="#fff" stroke-linecap="round" stroke-linejoin="round" stroke-width="0.5"/>
        </g>
        <ellipse id="Oval-3" data-name="Oval" cx="11.175" cy="11.182" rx="11.175" ry="11.182" transform="translate(62.577 55.374)" fill="none" stroke="#0ea0f3" stroke-linejoin="round" stroke-width="1"/>
        <g id="Path-7" data-name="Path" transform="translate(75.987 62.083)">
          <path id="Path_23" data-name="Path 23" d="M68.2,58.383a2.237,2.237,0,0,1,0,4.473" transform="translate(-68.195 -58.383)"/>
          <path id="Path_24" data-name="Path 24" d="M68.2,58.383a2.237,2.237,0,0,1,0,4.473" transform="translate(-68.195 -58.383)" fill="rgba(242,242,249,0)" stroke="#f2f2f9" stroke-linecap="round" stroke-linejoin="round" stroke-width="1"/>
          <path id="Path_25" data-name="Path 25" d="M68.2,58.383a2.237,2.237,0,0,1,0,4.473" transform="translate(-68.195 -58.383)" fill="none" stroke="#fff" stroke-linecap="round" stroke-linejoin="round" stroke-width="0.5"/>
        </g>
        <g id="Path-8" data-name="Path" transform="translate(75.987 66.556)">
          <path id="Path_26" data-name="Path 26" d="M68.2,62.145a2.236,2.236,0,0,1,0,4.473" transform="translate(-68.195 -62.145)"/>
          <path id="Path_27" data-name="Path 27" d="M68.2,62.145a2.236,2.236,0,0,1,0,4.473" transform="translate(-68.195 -62.145)" fill="rgba(242,242,249,0)" stroke="#f2f2f9" stroke-linecap="round" stroke-linejoin="round" stroke-width="1"/>
          <path id="Path_28" data-name="Path 28" d="M68.2,62.145a2.236,2.236,0,0,1,0,4.473" transform="translate(-68.195 -62.145)" fill="none" stroke="#fff" stroke-linecap="round" stroke-linejoin="round" stroke-width="0.5"/>
        </g>
        <g id="Path-9" data-name="Path" transform="translate(69.282 62.083)">
          <path id="Path_29" data-name="Path 29" d="M62.556,58.383h6.7" transform="translate(-62.556 -58.383)"/>
          <path id="Path_30" data-name="Path 30" d="M62.556,58.383h6.7" transform="translate(-62.556 -58.383)" fill="rgba(242,242,249,0)" stroke="#f2f2f9" stroke-linecap="round" stroke-linejoin="round" stroke-width="1"/>
          <path id="Path_31" data-name="Path 31" d="M62.556,58.383h6.7" transform="translate(-62.556 -58.383)" fill="none" stroke="#fff" stroke-linecap="round" stroke-linejoin="round" stroke-width="0.5"/>
        </g>
        <g id="Path-10" data-name="Path" transform="translate(71.517 66.556)">
          <path id="Path_32" data-name="Path 32" d="M64.436,62.145h4.47" transform="translate(-64.436 -62.145)"/>
          <path id="Path_33" data-name="Path 33" d="M64.436,62.145h4.47" transform="translate(-64.436 -62.145)" fill="rgba(242,242,249,0)" stroke="#f2f2f9" stroke-linecap="round" stroke-linejoin="round" stroke-width="1"/>
          <path id="Path_34" data-name="Path 34" d="M64.436,62.145h4.47" transform="translate(-64.436 -62.145)" fill="none" stroke="#fff" stroke-linecap="round" stroke-linejoin="round" stroke-width="0.5"/>
        </g>
        <g id="Path-11" data-name="Path" transform="translate(69.282 71.029)">
          <path id="Path_35" data-name="Path 35" d="M62.556,65.907h6.7" transform="translate(-62.556 -65.907)"/>
          <path id="Path_36" data-name="Path 36" d="M62.556,65.907h6.7" transform="translate(-62.556 -65.907)" fill="rgba(242,242,249,0)" stroke="#f2f2f9" stroke-linecap="round" stroke-linejoin="round" stroke-width="1"/>
          <path id="Path_37" data-name="Path 37" d="M62.556,65.907h6.7" transform="translate(-62.556 -65.907)" fill="none" stroke="#fff" stroke-linecap="round" stroke-linejoin="round" stroke-width="0.5"/>
        </g>
        <g id="Path-12" data-name="Path" transform="translate(71.517 59.847)">
          <path id="Path_38" data-name="Path 38" d="M64.436,56.5V69.826" transform="translate(-64.436 -56.502)"/>
          <path id="Path_39" data-name="Path 39" d="M64.436,56.5V69.826" transform="translate(-64.436 -56.502)" fill="rgba(242,242,249,0)" stroke="#f2f2f9" stroke-linecap="round" stroke-linejoin="round" stroke-width="1"/>
          <path id="Path_40" data-name="Path 40" d="M64.436,56.5V69.826" transform="translate(-64.436 -56.502)" fill="none" stroke="#fff" stroke-linecap="round" stroke-linejoin="round" stroke-width="0.5"/>
        </g>
        <g id="Path-13" data-name="Path" transform="translate(75.987 59.847)">
          <path id="Path_41" data-name="Path 41" d="M68.2,56.5v2.236" transform="translate(-68.196 -56.502)"/>
          <path id="Path_42" data-name="Path 42" d="M68.2,56.5v2.236" transform="translate(-68.196 -56.502)" fill="rgba(242,242,249,0)" stroke="#f2f2f9" stroke-linecap="round" stroke-linejoin="round" stroke-width="1"/>
          <path id="Path_43" data-name="Path 43" d="M68.2,56.5v2.236" transform="translate(-68.196 -56.502)" fill="none" stroke="#fff" stroke-linecap="round" stroke-linejoin="round" stroke-width="0.5"/>
        </g>
        <g id="Path-14" data-name="Path" transform="translate(75.987 71.029)">
          <path id="Path_44" data-name="Path 44" d="M68.2,65.907v2.236" transform="translate(-68.196 -65.907)"/>
          <path id="Path_45" data-name="Path 45" d="M68.2,65.907v2.236" transform="translate(-68.196 -65.907)" fill="rgba(242,242,249,0)" stroke="#f2f2f9" stroke-linecap="round" stroke-linejoin="round" stroke-width="1"/>
          <path id="Path_46" data-name="Path 46" d="M68.2,65.907v2.236" transform="translate(-68.196 -65.907)" fill="none" stroke="#fff" stroke-linecap="round" stroke-linejoin="round" stroke-width="0.5"/>
        </g>
        <ellipse id="Oval-4" data-name="Oval" cx="4.47" cy="4.473" rx="4.47" ry="4.473" transform="translate(0 59.847)" fill="none" stroke="#0ea0f3" stroke-linejoin="round" stroke-width="1"/>
        <ellipse id="Oval-5" data-name="Oval" cx="4.47" cy="4.473" rx="4.47" ry="4.473" transform="translate(35.758 10.644)" fill="none" stroke="rgba(255,255,255,0.32)" stroke-linejoin="round" stroke-width="1"/>
        <ellipse id="Oval-6" data-name="Oval" cx="2.235" cy="2.236" rx="2.235" ry="2.236" transform="translate(49.168 74.384)" fill="none" stroke="#0ea0f3" stroke-linejoin="round" stroke-width="1"/>
        <ellipse id="Oval-7" data-name="Oval" cx="2.235" cy="2.236" rx="2.235" ry="2.236" transform="translate(73.752 35.246)" fill="none" stroke="#0ea0f3" stroke-linejoin="round" stroke-width="1"/>
        <ellipse id="Oval-8" data-name="Oval" cx="2.235" cy="2.236" rx="2.235" ry="2.236" transform="translate(15.644 39.719)" fill="none" stroke="rgba(255,255,255,0.32)" stroke-linejoin="round" stroke-width="1"/>
        <path id="Combined-Shape" d="M48.954,32.857V48.144m-5.1-15.287V49.842m-5.1-16.985V51.541m-5.1-18.684V53.239m-5.1-20.382v11.89m25.478-11.89V48.144" transform="translate(0.303 -1.123)" fill="none" stroke="rgba(255,255,255,0.64)" stroke-linejoin="round" stroke-width="1" fill-rule="evenodd"/>
        <line id="Path-15" data-name="Path" x2="13.409" transform="translate(4.47 13.419)" fill="none" stroke="#0ea0f3" stroke-linejoin="round" stroke-width="1"/>
        <line id="Path-16" data-name="Path" x1="13.409" transform="translate(13.409 4.473)" fill="none" stroke="#0ea0f3" stroke-linejoin="round" stroke-width="1"/>
      </g>
    </g>
  </g>
</svg>
