<svg xmlns="http://www.w3.org/2000/svg" width="60.528" height="60.528" viewBox="0 0 60.528 60.528">
  <path id="Path_227" data-name="Path 227" d="M60.528,26.718c0-8.746-3.1-14.085-8.7-19.444-2.1-2.008-4.081-3.9-4.97-6.477A1.182,1.182,0,0,0,45.743,0H26.718C17.972,0,12.633,3.1,7.273,8.7c-2.008,2.1-3.9,4.081-6.477,4.97A1.182,1.182,0,0,0,0,14.786V33.811C0,42.556,3.1,47.9,8.7,53.255c2.1,2.008,4.081,3.9,4.97,6.477a1.182,1.182,0,0,0,1.117.8H33.811a24.846,24.846,0,0,0,12.344-2.939,1.182,1.182,0,0,0-1.145-2.069,22.55,22.55,0,0,1-11.2,2.644H28.036a5.313,5.313,0,0,1,3.731-3.891,59.77,59.77,0,0,1,6.007-1.055l.014,0c4.716-.693,7.153-2.959,10.345-6.3a1.182,1.182,0,1,0-1.708-1.635,22.4,22.4,0,0,1-4.979,4.289,2.364,2.364,0,1,1-2.331-4.111,17.564,17.564,0,0,0,3.891-3.444c4.271-4.465,9.666-7.026,14.8-7.026h.355v9.942a17.344,17.344,0,0,0-5.327,3.932,1.182,1.182,0,1,0,1.675,1.669,14.134,14.134,0,0,1,5.221-3.675,1.182,1.182,0,0,0,.8-1.117V26.718ZM2.364,15.594c2.7-1.166,4.688-3.245,6.617-5.261,3.691-3.855,8.409-7.97,17.736-7.97h5.775a5.313,5.313,0,0,1-3.731,3.891,59.769,59.769,0,0,1-6.007,1.055l-.014,0a13.948,13.948,0,0,0-4.625,1.474,23.338,23.338,0,0,0-5.72,4.821A1.182,1.182,0,1,0,14.1,15.242a21.587,21.587,0,0,1,5.115-4.364,2.364,2.364,0,0,1,2.195,4.187,17.564,17.564,0,0,0-3.891,3.444c-4.271,4.465-9.666,7.026-14.8,7.026H2.364Zm23.171,42.57H15.594c-1.166-2.7-3.245-4.688-5.261-6.617-3.855-3.691-7.969-8.409-7.969-17.736V28.036a5.312,5.312,0,0,1,3.891,3.731,59.97,59.97,0,0,1,1.058,6.021c.7,4.748,2.923,7.118,6.3,10.345a1.182,1.182,0,1,0,1.635-1.708,22.457,22.457,0,0,1-4.271-4.944,2.365,2.365,0,1,1,4.094-2.366,17.561,17.561,0,0,0,3.444,3.891c4.465,4.271,7.026,9.666,7.026,14.8ZM41.3,40.385a16.823,16.823,0,0,1-3.3,3,4.728,4.728,0,0,0-1.041,7.568A55,55,0,0,0,31.13,52a7.654,7.654,0,0,0-3.588,2.213,24.8,24.8,0,0,0-7.4-12.912,16.822,16.822,0,0,1-3-3.3A4.729,4.729,0,0,0,9.58,36.954,55.071,55.071,0,0,0,8.532,31.13a7.653,7.653,0,0,0-2.213-3.588,24.8,24.8,0,0,0,12.912-7.4,16.823,16.823,0,0,1,3.3-3,4.722,4.722,0,0,0,1.922-6.4,4.665,4.665,0,0,0-.885-1.162A55.071,55.071,0,0,0,29.4,8.532a7.654,7.654,0,0,0,3.588-2.213,24.8,24.8,0,0,0,7.4,12.912,16.822,16.822,0,0,1,3,3.3,4.722,4.722,0,0,0,6.4,1.922,4.667,4.667,0,0,0,1.162-.885A55.1,55.1,0,0,0,52,29.4a7.653,7.653,0,0,0,2.213,3.588A24.8,24.8,0,0,0,41.3,40.385Zm16.866-7.893a5.312,5.312,0,0,1-3.891-3.731,59.972,59.972,0,0,1-1.058-6.021c-.691-4.7-2.889-7.086-6.3-10.345A1.182,1.182,0,1,0,45.286,14.1a21.772,21.772,0,0,1,4.366,5.119,2.364,2.364,0,0,1-4.189,2.191,17.561,17.561,0,0,0-3.444-3.891c-4.465-4.271-7.026-9.666-7.026-14.8V2.364h9.942c1.166,2.7,3.245,4.688,5.261,6.617,3.855,3.691,7.969,8.409,7.969,17.736Z" transform="translate(0 0)" fill="#fefefe" opacity="0.68"/>
</svg>
