<svg xmlns="http://www.w3.org/2000/svg" width="78.832" height="63.604" viewBox="0 0 78.832 63.604">
  <g id="Landing-page" transform="translate(-21.357 -19.5)">
    <g id="Landingpage" transform="translate(21.857 20)">
      <g id="Group-8">
        <g id="Icons-_-Categories-_-Social" data-name="Icons-/-Categories-/-Social" transform="translate(0)">
          <g id="Stroke-17" transform="translate(15.228 16.92)">
            <path id="Path_47" data-name="Path 47" d="M52.923,26.149H29.235A11.826,11.826,0,0,0,19.162,44.2l-1.77,5.637,5.637-1.771a11.772,11.772,0,0,0,6.207,1.771H52.923a11.844,11.844,0,1,0,0-23.688Z" transform="translate(-17.391 -26.149)"/>
            <path id="Path_48" data-name="Path 48" d="M52.923,26.149H29.235A11.826,11.826,0,0,0,19.162,44.2l-1.77,5.637,5.637-1.771a11.772,11.772,0,0,0,6.207,1.771H52.923a11.844,11.844,0,1,0,0-23.688Z" transform="translate(-17.391 -26.149)" fill="rgba(242,242,249,0)" stroke="#f2f2f9" stroke-linecap="round" stroke-linejoin="round" stroke-width="1"/>
            <path id="Path_49" data-name="Path 49" d="M52.923,26.149H29.235A11.826,11.826,0,0,0,19.162,44.2l-1.77,5.637,5.637-1.771a11.772,11.772,0,0,0,6.207,1.771H52.923a11.844,11.844,0,1,0,0-23.688Z" transform="translate(-17.391 -26.149)" fill="none" stroke="#fff" stroke-linecap="round" stroke-linejoin="round" stroke-width="0.5"/>
          </g>
          <path id="Stroke-1" d="M22.39,61.754A1.692,1.692,0,1,0,20.7,63.446,1.692,1.692,0,0,0,22.39,61.754Z" transform="translate(-2.086 -7.61)" fill="none" stroke="#0ea0f3" stroke-linejoin="round" stroke-width="1" fill-rule="evenodd"/>
          <path id="Stroke-3" d="M28.862,61.754a1.692,1.692,0,1,0-1.692,1.692A1.692,1.692,0,0,0,28.862,61.754Z" transform="translate(-1.777 -7.61)" fill="none" stroke="#0ea0f3" stroke-linejoin="round" stroke-width="1" fill-rule="evenodd"/>
          <path id="Stroke-5" d="M35.309,61.754a1.692,1.692,0,1,0-1.692,1.692A1.692,1.692,0,0,0,35.309,61.754Z" transform="translate(-1.47 -7.61)" fill="none" stroke="#0ea0f3" stroke-linejoin="round" stroke-width="1" fill-rule="evenodd"/>
          <path id="Stroke-7" d="M29.544,19.689A18.612,18.612,0,0,0,10.932,38.3" transform="translate(-2.472 -9.538)" fill="none" stroke="#0ea0f3" stroke-linejoin="round" stroke-width="1" fill-rule="evenodd"/>
          <path id="Stroke-9" d="M51.3,56.065A18.612,18.612,0,0,0,69.916,37.453" transform="translate(-0.545 -8.69)" fill="none" stroke="#0ea0f3" stroke-linejoin="round" stroke-width="1" fill-rule="evenodd"/>
          <g id="Stroke-11" transform="translate(36.241 28.764)">
            <path id="Path_50" data-name="Path 50" d="M42.8,42.529H37.447v-2.4a2.675,2.675,0,1,1,5.349,0Z" transform="translate(-37.447 -37.453)"/>
            <path id="Path_51" data-name="Path 51" d="M42.8,42.529H37.447v-2.4a2.675,2.675,0,1,1,5.349,0Z" transform="translate(-37.447 -37.453)" fill="rgba(242,242,249,0)" stroke="#f2f2f9" stroke-linecap="round" stroke-linejoin="round" stroke-width="1"/>
            <path id="Path_52" data-name="Path 52" d="M42.8,42.529H37.447v-2.4a2.675,2.675,0,1,1,5.349,0Z" transform="translate(-37.447 -37.453)" fill="none" stroke="#fff" stroke-linecap="round" stroke-linejoin="round" stroke-width="0.5"/>
          </g>
          <g id="Stroke-13" transform="translate(47.205 28.764)">
            <path id="Path_53" data-name="Path 53" d="M53.261,42.529H47.912v-2.4a2.675,2.675,0,1,1,5.349,0Z" transform="translate(-47.912 -37.453)"/>
            <path id="Path_54" data-name="Path 54" d="M53.261,42.529H47.912v-2.4a2.675,2.675,0,1,1,5.349,0Z" transform="translate(-47.912 -37.453)" fill="rgba(242,242,249,0)" stroke="#f2f2f9" stroke-linecap="round" stroke-linejoin="round" stroke-width="1"/>
            <path id="Path_55" data-name="Path 55" d="M53.261,42.529H47.912v-2.4a2.675,2.675,0,1,1,5.349,0Z" transform="translate(-47.912 -37.453)" fill="none" stroke="#fff" stroke-linecap="round" stroke-linejoin="round" stroke-width="0.5"/>
          </g>
          <g id="Stroke-15" transform="translate(25.243 28.764)">
            <path id="Path_56" data-name="Path 56" d="M32.3,42.529H26.95v-2.4a2.675,2.675,0,1,1,5.349,0Z" transform="translate(-26.95 -37.453)"/>
            <path id="Path_57" data-name="Path 57" d="M32.3,42.529H26.95v-2.4a2.675,2.675,0,1,1,5.349,0Z" transform="translate(-26.95 -37.453)" fill="rgba(242,242,249,0)" stroke="#f2f2f9" stroke-linecap="round" stroke-linejoin="round" stroke-width="1"/>
            <path id="Path_58" data-name="Path 58" d="M32.3,42.529H26.95v-2.4a2.675,2.675,0,1,1,5.349,0Z" transform="translate(-26.95 -37.453)" fill="none" stroke="#fff" stroke-linecap="round" stroke-linejoin="round" stroke-width="0.5"/>
          </g>
          <path id="Stroke-19" d="M20.929,55.217H34.465a6.758,6.758,0,0,1,5.756,10.315l2.7,4.913-4.913-2.7a6.729,6.729,0,0,1-3.547,1.012H20.929a6.768,6.768,0,0,1,0-13.536Z" transform="translate(-2.318 -7.842)" fill="none" stroke="#0ea0f3" stroke-linejoin="round" stroke-width="1" fill-rule="evenodd"/>
          <path id="Stroke-21" d="M69.222,56.909A1.692,1.692,0,1,0,67.53,58.6,1.692,1.692,0,0,0,69.222,56.909Z" transform="translate(0.149 -7.842)" fill="none" stroke="rgba(255,255,255,0.32)" stroke-linejoin="round" stroke-width="1" fill-rule="evenodd"/>
          <path id="Stroke-23" d="M51.3,18.959A1.692,1.692,0,1,0,49.6,20.651,1.692,1.692,0,0,0,51.3,18.959Z" transform="translate(-0.707 -9.653)" fill="none" stroke="rgba(255,255,255,0.32)" stroke-linejoin="round" stroke-width="1" fill-rule="evenodd"/>
          <path id="Stroke-25" d="M57.918,68.214a1.692,1.692,0,1,0-1.692,1.692A1.692,1.692,0,0,0,57.918,68.214Z" transform="translate(-0.39 -7.302)" fill="none" stroke="#0ea0f3" stroke-linejoin="round" stroke-width="1" fill-rule="evenodd"/>
          <line id="Stroke-27" y2="6.768" transform="translate(27.072 6.768)" fill="none" stroke="rgba(255,255,255,0.64)" stroke-linejoin="round" stroke-width="1"/>
          <line id="Stroke-29" x2="6.768" transform="translate(5.076 28.764)" fill="none" stroke="rgba(255,255,255,0.64)" stroke-linejoin="round" stroke-width="1"/>
          <line id="Stroke-31" x1="6.768" transform="translate(65.988 28.764)" fill="none" stroke="rgba(255,255,255,0.32)" stroke-linejoin="round" stroke-width="1"/>
          <line id="Stroke-33" y1="6.768" transform="translate(50.76 43.992)" fill="none" stroke="rgba(255,255,255,0.32)" stroke-linejoin="round" stroke-width="1"/>
          <path id="Stroke-35" d="M14.316,13.23a3.384,3.384,0,0,1-3.383,3.384A3.384,3.384,0,0,1,14.316,20,3.384,3.384,0,0,1,17.7,16.614,3.384,3.384,0,0,1,14.316,13.23Z" transform="translate(-2.472 -9.846)" fill="none" stroke="#0ea0f3" stroke-linejoin="round" stroke-width="1" fill-rule="evenodd"/>
          <g id="Stroke-37" transform="translate(62.604 4.136)">
            <path id="Path_59" data-name="Path 59" d="M68.831,14.492a1.862,1.862,0,0,0-2.632,0,1.831,1.831,0,0,0-.206.249,1.892,1.892,0,0,0-.207-.249,1.861,1.861,0,0,0-2.632,2.633l2.839,2.838,2.838-2.838A1.862,1.862,0,0,0,68.831,14.492Z" transform="translate(-62.609 -13.948)"/>
            <path id="Path_60" data-name="Path 60" d="M68.831,14.492a1.862,1.862,0,0,0-2.632,0,1.831,1.831,0,0,0-.206.249,1.892,1.892,0,0,0-.207-.249,1.861,1.861,0,0,0-2.632,2.633l2.839,2.838,2.838-2.838A1.862,1.862,0,0,0,68.831,14.492Z" transform="translate(-62.609 -13.948)" fill="rgba(242,242,249,0)" stroke="#f2f2f9" stroke-linecap="round" stroke-linejoin="round" stroke-width="1"/>
            <path id="Path_61" data-name="Path 61" d="M68.831,14.492a1.862,1.862,0,0,0-2.632,0,1.831,1.831,0,0,0-.206.249,1.892,1.892,0,0,0-.207-.249,1.861,1.861,0,0,0-2.632,2.633l2.839,2.838,2.838-2.838A1.862,1.862,0,0,0,68.831,14.492Z" transform="translate(-62.609 -13.948)" fill="none" stroke="#fff" stroke-linecap="round" stroke-linejoin="round" stroke-width="0.5"/>
          </g>
          <path id="Stroke-39" d="M57.764,10V23.536H62.84l3.384,3.384,3.384-3.384h5.076V10Z" transform="translate(-0.236 -10)" fill="none" stroke="#0ea0f3" stroke-linejoin="round" stroke-width="1" fill-rule="evenodd"/>
          <g id="Stroke-41" transform="translate(24.534 1.692)">
            <path id="Path_62" data-name="Path 62" d="M31.349,14.153a2.538,2.538,0,1,0-2.538,2.538A2.538,2.538,0,0,0,31.349,14.153Z" transform="translate(-26.273 -11.615)"/>
            <path id="Path_63" data-name="Path 63" d="M31.349,14.153a2.538,2.538,0,1,0-2.538,2.538A2.538,2.538,0,0,0,31.349,14.153Z" transform="translate(-26.273 -11.615)" fill="rgba(242,242,249,0)" stroke="#f2f2f9" stroke-linecap="round" stroke-linejoin="round" stroke-width="1"/>
            <path id="Path_64" data-name="Path 64" d="M31.349,14.153a2.538,2.538,0,1,0-2.538,2.538A2.538,2.538,0,0,0,31.349,14.153Z" transform="translate(-26.273 -11.615)" fill="none" stroke="#fff" stroke-linecap="round" stroke-linejoin="round" stroke-width="0.5"/>
          </g>
          <g id="Stroke-43" transform="translate(0 26.226)">
            <path id="Path_65" data-name="Path 65" d="M5.4,35.031a2.538,2.538,0,1,0,2.538,2.538A2.538,2.538,0,0,0,5.4,35.031Z" transform="translate(-2.857 -35.031)"/>
            <path id="Path_66" data-name="Path 66" d="M5.4,35.031a2.538,2.538,0,1,0,2.538,2.538A2.538,2.538,0,0,0,5.4,35.031Z" transform="translate(-2.857 -35.031)" fill="rgba(242,242,249,0)" stroke="#f2f2f9" stroke-linecap="round" stroke-linejoin="round" stroke-width="1"/>
            <path id="Path_67" data-name="Path 67" d="M5.4,35.031a2.538,2.538,0,1,0,2.538,2.538A2.538,2.538,0,0,0,5.4,35.031Z" transform="translate(-2.857 -35.031)" fill="none" stroke="#fff" stroke-linecap="round" stroke-linejoin="round" stroke-width="0.5"/>
          </g>
          <g id="Stroke-45" transform="translate(72.756 26.226)">
            <path id="Path_68" data-name="Path 68" d="M74.836,40.107A2.538,2.538,0,1,0,72.3,37.569,2.538,2.538,0,0,0,74.836,40.107Z" transform="translate(-72.298 -35.031)"/>
            <path id="Path_69" data-name="Path 69" d="M74.836,40.107A2.538,2.538,0,1,0,72.3,37.569,2.538,2.538,0,0,0,74.836,40.107Z" transform="translate(-72.298 -35.031)" fill="rgba(242,242,249,0)" stroke="#f2f2f9" stroke-linecap="round" stroke-linejoin="round" stroke-width="1"/>
            <path id="Path_70" data-name="Path 70" d="M74.836,40.107A2.538,2.538,0,1,0,72.3,37.569,2.538,2.538,0,0,0,74.836,40.107Z" transform="translate(-72.298 -35.031)" fill="none" stroke="#fff" stroke-linecap="round" stroke-linejoin="round" stroke-width="0.5"/>
          </g>
          <g id="Stroke-47" transform="translate(48.222 50.76)">
            <path id="Path_71" data-name="Path 71" d="M48.882,60.985a2.538,2.538,0,1,0,2.538-2.538A2.538,2.538,0,0,0,48.882,60.985Z" transform="translate(-48.882 -58.447)"/>
            <path id="Path_72" data-name="Path 72" d="M48.882,60.985a2.538,2.538,0,1,0,2.538-2.538A2.538,2.538,0,0,0,48.882,60.985Z" transform="translate(-48.882 -58.447)" fill="rgba(242,242,249,0)" stroke="#f2f2f9" stroke-linecap="round" stroke-linejoin="round" stroke-width="1"/>
            <path id="Path_73" data-name="Path 73" d="M48.882,60.985a2.538,2.538,0,1,0,2.538-2.538A2.538,2.538,0,0,0,48.882,60.985Z" transform="translate(-48.882 -58.447)" fill="none" stroke="#fff" stroke-linecap="round" stroke-linejoin="round" stroke-width="0.5"/>
          </g>
          <g id="Stroke-49" transform="translate(25.38 23.688)">
            <path id="Path_74" data-name="Path 74" d="M32.157,35.147a2.538,2.538,0,1,0-2.538,2.538A2.538,2.538,0,0,0,32.157,35.147Z" transform="translate(-27.081 -32.609)"/>
            <path id="Path_75" data-name="Path 75" d="M32.157,35.147a2.538,2.538,0,1,0-2.538,2.538A2.538,2.538,0,0,0,32.157,35.147Z" transform="translate(-27.081 -32.609)" fill="rgba(242,242,249,0)" stroke="#f2f2f9" stroke-linecap="round" stroke-linejoin="round" stroke-width="1"/>
            <path id="Path_76" data-name="Path 76" d="M32.157,35.147a2.538,2.538,0,1,0-2.538,2.538A2.538,2.538,0,0,0,32.157,35.147Z" transform="translate(-27.081 -32.609)" fill="none" stroke="#fff" stroke-linecap="round" stroke-linejoin="round" stroke-width="0.5"/>
          </g>
          <g id="Stroke-51" transform="translate(36.378 23.688)">
            <path id="Path_77" data-name="Path 77" d="M42.654,35.147a2.538,2.538,0,1,0-2.538,2.538A2.538,2.538,0,0,0,42.654,35.147Z" transform="translate(-37.578 -32.609)"/>
            <path id="Path_78" data-name="Path 78" d="M42.654,35.147a2.538,2.538,0,1,0-2.538,2.538A2.538,2.538,0,0,0,42.654,35.147Z" transform="translate(-37.578 -32.609)" fill="rgba(242,242,249,0)" stroke="#f2f2f9" stroke-linecap="round" stroke-linejoin="round" stroke-width="1"/>
            <path id="Path_79" data-name="Path 79" d="M42.654,35.147a2.538,2.538,0,1,0-2.538,2.538A2.538,2.538,0,0,0,42.654,35.147Z" transform="translate(-37.578 -32.609)" fill="none" stroke="#fff" stroke-linecap="round" stroke-linejoin="round" stroke-width="0.5"/>
          </g>
          <g id="Stroke-53" transform="translate(47.342 23.688)">
            <path id="Path_80" data-name="Path 80" d="M53.118,35.147a2.538,2.538,0,1,0-2.538,2.538A2.538,2.538,0,0,0,53.118,35.147Z" transform="translate(-48.042 -32.609)"/>
            <path id="Path_81" data-name="Path 81" d="M53.118,35.147a2.538,2.538,0,1,0-2.538,2.538A2.538,2.538,0,0,0,53.118,35.147Z" transform="translate(-48.042 -32.609)" fill="rgba(242,242,249,0)" stroke="#f2f2f9" stroke-linecap="round" stroke-linejoin="round" stroke-width="1"/>
            <path id="Path_82" data-name="Path 82" d="M53.118,35.147a2.538,2.538,0,1,0-2.538,2.538A2.538,2.538,0,0,0,53.118,35.147Z" transform="translate(-48.042 -32.609)" fill="none" stroke="#fff" stroke-linecap="round" stroke-linejoin="round" stroke-width="0.5"/>
          </g>
        </g>
      </g>
    </g>
  </g>
</svg>
