<svg id="social-media" xmlns="http://www.w3.org/2000/svg" width="48.35" height="51.626" viewBox="0 0 48.35 51.626">
  <path id="Path_103" data-name="Path 103" d="M211.775,27.163a5.049,5.049,0,0,0,2.967.958h9.482v4.6l6.01-4.6h2.593a5.053,5.053,0,0,0,5.061-5.046V5.046A5.053,5.053,0,0,0,232.827,0H214.742a5.053,5.053,0,0,0-5.061,5.046V27.163Z" transform="translate(-189.538 0)" fill="#444"/>
  <path id="Path_104" data-name="Path 104" d="M358.288,0h-4.335a5.053,5.053,0,0,1,5.061,5.046v18.03a5.053,5.053,0,0,1-5.061,5.046H351.36L349.685,29.4v3.316l6.01-4.6h2.593a5.053,5.053,0,0,0,5.061-5.046V5.046A5.053,5.053,0,0,0,358.288,0Z" transform="translate(-314.999)" fill="#363737"/>
  <path id="Path_105" data-name="Path 105" d="M298.582,70.131l.522.422a4.646,4.646,0,0,0,2.923,1.035h7.405a1.235,1.235,0,0,0,1.234-1.3c-.031-.664,0-6.715,0-7.4a1.235,1.235,0,0,0-1.235-1.235l-5.022-.015.615-1.456a5.269,5.269,0,0,0-.279-4.664.829.829,0,0,0-1.535.408,5.359,5.359,0,0,1-1.341,3.546l-3.2,3.623H297.5v7.028h1.082Z" transform="translate(-268.235 -49.406)" fill="#ffd36c"/>
  <path id="Path_106" data-name="Path 106" d="M270.442,128.912h-3.381a.4.4,0,0,1-.4-.4v-8.619a.4.4,0,0,1,.4-.4h3.381a.4.4,0,0,1,.4.4v8.619A.4.4,0,0,1,270.442,128.912Z" transform="translate(-240.595 -107.073)" fill="#8ee6f3"/>
  <path id="Path_107" data-name="Path 107" d="M38.011,157.176v-18.2A3.985,3.985,0,0,0,34.02,135H19.758a3.985,3.985,0,0,0-3.991,3.979V153.2a3.985,3.985,0,0,0,3.991,3.979h7.835v3.66l4.74-3.66Z" transform="translate(-15.767 -120.977)" fill="#0ea0f3"/>
  <path id="Path_108" data-name="Path 108" d="M142.73,135h-5.652a3.985,3.985,0,0,1,3.991,3.979v18.2h5.652v-18.2A3.985,3.985,0,0,0,142.73,135Z" transform="translate(-124.477 -120.977)" fill="rgba(0,96,151,0.28)"/>
  <path id="Path_109" data-name="Path 109" d="M76.446,193.161H73.577l.314-1.9h2.554a.779.779,0,0,0,0-1.558h-2.3l.429-2.595a.779.779,0,0,0-1.537-.254L72.57,189.7H70.691l.429-2.595a.779.779,0,0,0-1.537-.254l-.471,2.849H65.985a.779.779,0,0,0,0,1.558h2.868l-.314,1.9H65.985a.779.779,0,0,0,0,1.558h2.3l-.429,2.595a.78.78,0,0,0,1.537.254l.471-2.849h1.879l-.429,2.595a.78.78,0,0,0,1.537.254l.471-2.849h3.126a.779.779,0,0,0,0-1.558Zm-4.448,0H70.119l.314-1.9h1.879Z" transform="translate(-60.094 -166.88)" fill="#f7f3f1"/>
  <path id="Path_110" data-name="Path 110" d="M192.487,320.5H182.366a2.828,2.828,0,0,0-2.832,2.824v10.09a2.828,2.828,0,0,0,2.832,2.824h5.56v2.6l3.364-2.6h1.2a2.828,2.828,0,0,0,2.832-2.824v-10.09A2.828,2.828,0,0,0,192.487,320.5Z" transform="translate(-162.523 -287.206)" fill="#fa9084"/>
  <path id="Path_111" data-name="Path 111" d="M264.887,320.5h-4.363a2.828,2.828,0,0,1,2.832,2.824v10.09a2.828,2.828,0,0,1-2.832,2.824h-.2v2.6l3.364-2.6h1.2a2.828,2.828,0,0,0,2.832-2.824v-10.09A2.828,2.828,0,0,0,264.887,320.5Z" transform="translate(-234.922 -287.206)" fill="#ff6cb5"/>
  <path id="Path_112" data-name="Path 112" d="M223.621,374.779c2.435-1.291,3.7-2.39,3.7-4.091,0-2.348-2.876-2.934-3.7-1.174a1.975,1.975,0,0,0-3.7,1.174C219.924,372.39,221.186,373.488,223.621,374.779Z" transform="translate(-198.717 -330.19)" fill="#f7f3f1"/>
</svg>
