<svg xmlns="http://www.w3.org/2000/svg" width="45.352" height="45.352" viewBox="0 0 45.352 45.352">
  <g id="robot_1_" data-name="robot (1)" transform="translate(0)">
    <path id="Path_178" data-name="Path 178" d="M38.974,36.265v1.594a1.4,1.4,0,0,1-.419,1,22.761,22.761,0,0,1-3.2,2.614.668.668,0,0,1-.727.017,22.69,22.69,0,0,0-23.813-.059.841.841,0,0,1-.916-.021,22.763,22.763,0,0,1-3.128-2.573A1.9,1.9,0,0,1,6.2,37.482V36.073a3.3,3.3,0,0,0-3.3-3.3.85.85,0,0,1-.77-.489,22.676,22.676,0,1,1,41.081.015.826.826,0,0,1-.747.474,3.492,3.492,0,0,0-3.492,3.492Zm0,0" transform="translate(0 0)" fill="#fded32"/>
    <path id="Path_179" data-name="Path 179" d="M223.086,233.543A3.543,3.543,0,1,1,219.543,230,3.543,3.543,0,0,1,223.086,233.543Zm0,0" transform="translate(-196.867 -209.627)" fill="#0995a3"/>
    <path id="Path_180" data-name="Path 180" d="M249.743,1.772a1.77,1.77,0,0,1-3.194,1.053,6.21,6.21,0,0,0-4.778,6.034H240a7.986,7.986,0,0,1,6.355-7.807,1.771,1.771,0,0,1,3.389.721Zm0,0" transform="translate(-218.742)" fill="#013f69"/>
    <path id="Path_181" data-name="Path 181" d="M323.886,5a.886.886,0,1,1-.886.886A.886.886,0,0,1,323.886,5Zm0,0" transform="translate(-294.39 -4.557)" fill="#015081"/>
    <path id="Path_182" data-name="Path 182" d="M52.887,83.933H36.057A8.858,8.858,0,0,1,27.2,75.075V74.19a8.858,8.858,0,0,1,8.858-8.858h16.83a8.858,8.858,0,0,1,8.858,8.858v.886A8.858,8.858,0,0,1,52.887,83.933Zm12.223,7.885a22.73,22.73,0,0,1-4.678,6.6l-3-3c-.031-.031-.062-.064-.092-.1V99.4a8.906,8.906,0,0,1-.155,1.656,22.683,22.683,0,0,1-25.422-.12,8.911,8.911,0,0,1-.133-1.535V95.476l-2.939,2.939a22.73,22.73,0,0,1-4.678-6.6l2.042-2.042a3.536,3.536,0,0,1,2.922-1.012A3.543,3.543,0,0,1,35.741,87.5a8.816,8.816,0,0,1,4.745-1.377H48.48a8.818,8.818,0,0,1,5.43,1.86,3.543,3.543,0,0,1,6.942.773,3.528,3.528,0,0,1,2.215,1.025Zm0,0" transform="translate(-21.885 -59.545)" fill="#0cabb9"/>
    <path id="Path_183" data-name="Path 183" d="M53.151,83.933a8.857,8.857,0,0,1-8.858-8.858V74.19a8.858,8.858,0,0,1,8.858-8.858H66.526a8.858,8.858,0,0,1,8.858,8.858v.886a8.857,8.857,0,0,1-8.858,8.858Zm-7,8.567A3.542,3.542,0,0,1,43.1,90.754a3.522,3.522,0,0,0-1.527.9l-2.6,2.6a22.8,22.8,0,0,0,3.352,4.163l3-3a3.536,3.536,0,0,0,1.013-2.918c-.063,0-.127.006-.191.006Zm30.553-2.725a3.529,3.529,0,0,0-2.215-1.026c0,.069.007.137.007.207A3.544,3.544,0,0,1,72.144,92.3a3.522,3.522,0,0,0,.8,1.238l2.911,2.911a22.678,22.678,0,0,0,2.89-4.626Zm-9.294-.818a3.549,3.549,0,0,1,.15-1.021,8.817,8.817,0,0,0-5.376-1.818H57.668a8.857,8.857,0,0,0-8.858,8.858V99.4a8.822,8.822,0,0,0,.872,3.836A22.705,22.705,0,0,0,70.9,101.01a8.9,8.9,0,0,0,.146-1.605V94.976a8.87,8.87,0,0,0-.354-2.487,3.543,3.543,0,0,1-3.277-3.532Zm0,0" transform="translate(-35.524 -59.545)" fill="#2abbc7"/>
    <path id="Path_184" data-name="Path 184" d="M144.221,113.3H128.986a3.986,3.986,0,1,1,0-7.972h15.235a3.986,3.986,0,1,1,0,7.972Zm0,0" transform="translate(-113.928 -96.002)" fill="#013f69"/>
    <path id="Path_185" data-name="Path 185" d="M167.007,113.3H153.986a3.986,3.986,0,1,1,0-7.972h13.021a3.986,3.986,0,1,1,0,7.972Zm0,0" transform="translate(-136.713 -96.002)" fill="#015081"/>
    <path id="Path_186" data-name="Path 186" d="M172.214,125.332a2.214,2.214,0,1,0,2.214,2.214A2.214,2.214,0,0,0,172.214,125.332Zm0,3.1a.886.886,0,1,1,.886-.886A.886.886,0,0,1,172.214,128.432Zm10.629-3.1a2.214,2.214,0,1,0,2.214,2.214A2.214,2.214,0,0,0,182.844,125.332Zm0,3.1a.886.886,0,1,1,.886-.886A.886.886,0,0,1,182.844,128.432Zm0,0" transform="translate(-154.942 -114.23)" fill="#84deea"/>
    <path id="Path_187" data-name="Path 187" d="M103.543,313.823a1.772,1.772,0,1,1-1.772-1.772A1.772,1.772,0,0,1,103.543,313.823Zm23.03-1.772a1.772,1.772,0,1,0,1.772,1.772A1.771,1.771,0,0,0,126.573,312.051Zm0,0" transform="translate(-91.142 -284.41)" fill="#84deea"/>
    <path id="Path_188" data-name="Path 188" d="M120.233,315.158a1.771,1.771,0,0,1-1.107,1.641,1.78,1.78,0,0,1-.788-.629.142.142,0,0,1,.121-.223h0a.79.79,0,1,0,0-1.58.141.141,0,0,1-.119-.222,1.778,1.778,0,0,1,.788-.629A1.771,1.771,0,0,1,120.233,315.158Zm23.694-1.642a1.775,1.775,0,0,0-.788.629.141.141,0,0,0,.118.223.81.81,0,0,1,.2.024.79.79,0,0,1-.193,1.556h0a.142.142,0,0,0-.12.223,1.392,1.392,0,1,0,.788-2.654Zm0,0" transform="translate(-107.833 -285.745)" fill="#d3f1f5"/>
    <path id="Path_189" data-name="Path 189" d="M293.543,330a.886.886,0,1,1-.886.886A.886.886,0,0,1,293.543,330Zm-3.543.886a.886.886,0,1,0,.886-.886A.886.886,0,0,0,290,330.886Zm0,0" transform="translate(-264.313 -300.77)" fill="#0995a3"/>
    <path id="Path_190" data-name="Path 190" d="M260.886,330a.886.886,0,1,1-.886.886A.886.886,0,0,1,260.886,330Zm0,0" transform="translate(-236.97 -300.77)" fill="#84deea"/>
  </g>
</svg>
