<svg id="AI" xmlns="http://www.w3.org/2000/svg" width="52.227" height="53.9" viewBox="0 0 52.227 53.9">
  <path id="Path_53" data-name="Path 53" d="M41.606,17.053A17.053,17.053,0,1,1,24.553,0,17.047,17.047,0,0,1,41.606,17.053Z" transform="translate(-7.421)" fill="#0e96c5"/>
  <path id="Path_54" data-name="Path 54" d="M37.118,85.854a4.384,4.384,0,0,0-8.566-1.384,4.382,4.382,0,0,0-5.337,4.349,4.393,4.393,0,0,0,.264,1.5,4.27,4.27,0,0,0-2.464-.764,4.418,4.418,0,0,0-4.388,4.454,4.481,4.481,0,0,0,.672,2.359,7.085,7.085,0,0,0,0,12.335,4.481,4.481,0,0,0-.672,2.359,4.427,4.427,0,0,0,4.388,4.454,4.33,4.33,0,0,0,2.464-.764,4.449,4.449,0,0,0,4.125,5.957,4.453,4.453,0,0,0,.949-.105,4.384,4.384,0,0,0,8.566-1.384Z" transform="translate(-12.804 -70.673)" fill="#006199"/>
  <path id="Path_55" data-name="Path 55" d="M26.826,118.5a5.277,5.277,0,0,1-4.744-2.978,5.307,5.307,0,0,1-5.667-5.337,5.292,5.292,0,0,1-6.576-5.192,5.419,5.419,0,0,1,.4-2.043,8,8,0,0,1,0-12.994,5.371,5.371,0,0,1,4.889-7.393,5.252,5.252,0,0,1,1.291.158,5.315,5.315,0,0,1,5.667-5.337A5.278,5.278,0,0,1,32.111,79.75v33.368a5.33,5.33,0,0,1-5.285,5.377Zm-4.178-4.863a.906.906,0,0,1,.857.619,3.486,3.486,0,0,0,6.813-1.107V79.777A3.485,3.485,0,0,0,23.5,78.683a.905.905,0,0,1-1.054.606,3.508,3.508,0,0,0-4.243,3.466,3.434,3.434,0,0,0,.211,1.2A.9.9,0,0,1,17.061,85a3.446,3.446,0,0,0-1.95-.606,3.548,3.548,0,0,0-2.952,5.43.889.889,0,0,1-.329,1.252,6.2,6.2,0,0,0,0,10.78.917.917,0,0,1,.435.554.871.871,0,0,1-.105.7,3.555,3.555,0,0,0-.54,1.885,3.518,3.518,0,0,0,3.492,3.545,3.446,3.446,0,0,0,1.95-.606.89.89,0,0,1,1.054.026.908.908,0,0,1,.3,1.015,3.535,3.535,0,0,0,4.033,4.665h.2Z" transform="translate(-6.9 -64.595)" fill="#4c241d"/>
  <path id="Path_56" data-name="Path 56" d="M70.764,135.239a.9.9,0,0,1,0-1.792A3.545,3.545,0,0,0,74.31,129.9a.9.9,0,0,1,1.792,0,5.332,5.332,0,0,1-5.337,5.337Zm4.454-31.892a.9.9,0,0,1-.9-.9,3.558,3.558,0,0,0-3.545-3.558.9.9,0,0,1,0-1.792,5.354,5.354,0,0,1,5.35,5.35A.917.917,0,0,1,75.219,103.347ZM64.465,115.22a.9.9,0,0,1,0-1.792,1.7,1.7,0,1,0,0-3.4H64.1a.9.9,0,0,1,0-1.792h.369a3.492,3.492,0,1,1,0,6.985Zm.369,8.9a.889.889,0,0,1-.9-.9v-.185a4.6,4.6,0,0,1,4.6-4.6.9.9,0,1,1,0,1.792,2.809,2.809,0,0,0-2.807,2.807v.185A.906.906,0,0,1,64.834,124.116Zm5.93-14.826a.9.9,0,0,1,0-1.792,1.327,1.327,0,0,0,1.331-1.331.9.9,0,0,1,1.792,0A3.13,3.13,0,0,1,70.764,109.29ZM74.1,127.819a4.235,4.235,0,0,1-4.23-4.23.9.9,0,0,1,1.792,0,2.441,2.441,0,0,0,2.438,2.438.9.9,0,0,1,0,1.792Zm5.97-4.441h-2.4a3.03,3.03,0,0,1-3.11-2.926,3.192,3.192,0,0,0-3.347-3H70.62a.9.9,0,1,1,0-1.792h.593a4.981,4.981,0,0,1,5.14,4.8,1.242,1.242,0,0,0,1.318,1.133h2.4a.9.9,0,0,1,0,1.792Zm.026-8.158H77.881a4.006,4.006,0,0,1-4.125-3.861.9.9,0,0,1,1.792,0,2.208,2.208,0,0,0,2.333,2.069h2.214a.9.9,0,1,1,0,1.792Zm16.3.158a.871.871,0,0,1-.659-.29.883.883,0,0,1,.053-1.265l3.492-3.242a.88.88,0,0,1,.606-.237h2.6v-4.494H96.318l-4.547,4.243a.9.9,0,0,1-1.226-1.3l4.823-4.494a.88.88,0,0,1,.606-.237h7.42a.889.889,0,0,1,.9.9v6.286a.9.9,0,0,1-.9.9h-3.15l-3.229,3a.936.936,0,0,1-.619.237Z" transform="translate(-55.78 -84.304)" fill="#4c241d"/>
  <path id="Path_57" data-name="Path 57" d="M288.53,114.647a.9.9,0,0,1-.9-.9v-3.558H283.5a.9.9,0,1,1,0-1.792h5.034a.9.9,0,0,1,.9.9v4.454A.9.9,0,0,1,288.53,114.647Z" transform="translate(-246.267 -94.114)" fill="#4c241d"/>
  <path id="Path_58" data-name="Path 58" d="M224.015,88.969a.889.889,0,0,1-.9-.9V83.592H215.4a.9.9,0,1,1,0-1.792h8.619a.889.889,0,0,1,.9.9v5.377A.881.881,0,0,1,224.015,88.969Z" transform="translate(-187.141 -71.02)" fill="#4c241d"/>
  <path id="Path_59" data-name="Path 59" d="M281.078,122.289a1.489,1.489,0,1,1-1.489-1.489A1.489,1.489,0,0,1,281.078,122.289Z" transform="translate(-242.36 -104.88)" fill="#003dcb"/>
  <path id="Path_60" data-name="Path 60" d="M273.685,118.771a2.385,2.385,0,1,1,2.385-2.385A2.385,2.385,0,0,1,273.685,118.771Zm0-2.965a.585.585,0,0,0-.58.58.58.58,0,1,0,1.16,0A.568.568,0,0,0,273.685,115.805Z" transform="translate(-236.456 -98.976)" fill="#4c241d"/>
  <path id="Path_61" data-name="Path 61" d="M264.178,178.589a1.489,1.489,0,1,1-1.489-1.489A1.489,1.489,0,0,1,264.178,178.589Z" transform="translate(-227.687 -153.761)" fill="#003dcb"/>
  <path id="Path_62" data-name="Path 62" d="M225.7,145.451a2.385,2.385,0,1,1,2.385-2.385A2.385,2.385,0,0,1,225.7,145.451Zm0-2.965a.585.585,0,0,0-.58.58.58.58,0,1,0,1.16,0A.568.568,0,0,0,225.7,142.486Zm-1.713,8.078a.864.864,0,0,1-.554-.2l-4.494-3.585a.92.92,0,0,1-.343-.7V137.1a.9.9,0,0,1,1.792,0v8.54l4.151,3.321a.913.913,0,0,1,.145,1.265A.843.843,0,0,1,223.99,150.565Z" transform="translate(-190.701 -118.251)" fill="#4c241d"/>
  <path id="Path_63" data-name="Path 63" d="M309.178,217.989a1.489,1.489,0,1,1-1.489-1.489A1.489,1.489,0,0,1,309.178,217.989Z" transform="translate(-266.757 -187.968)" fill="#003dcb"/>
  <path id="Path_64" data-name="Path 64" d="M301.785,214.371a2.385,2.385,0,1,1,2.385-2.385A2.385,2.385,0,0,1,301.785,214.371Zm0-2.965a.577.577,0,0,0-.58.58.58.58,0,1,0,1.16,0A.568.568,0,0,0,301.785,211.405Z" transform="translate(-260.853 -181.978)" fill="#4c241d"/>
  <path id="Path_65" data-name="Path 65" d="M247.878,224.789a1.489,1.489,0,1,1-1.489-1.489A1.488,1.488,0,0,1,247.878,224.789Z" transform="translate(-213.535 -193.872)" fill="#003dcb"/>
  <path id="Path_66" data-name="Path 66" d="M240.485,221.171a2.385,2.385,0,1,1,2.385-2.385A2.385,2.385,0,0,1,240.485,221.171Zm0-2.965a.576.576,0,0,0-.58.58.58.58,0,0,0,1.16,0A.568.568,0,0,0,240.485,218.205Z" transform="translate(-207.631 -187.882)" fill="#4c241d"/>
  <path id="Path_67" data-name="Path 67" d="M219.178,82.889a1.489,1.489,0,1,1-1.489-1.489A1.5,1.5,0,0,1,219.178,82.889Z" transform="translate(-188.617 -70.673)" fill="#003dcb"/>
  <path id="Path_68" data-name="Path 68" d="M211.785,79.371a2.385,2.385,0,1,1,2.385-2.385A2.385,2.385,0,0,1,211.785,79.371Zm0-2.965a.576.576,0,0,0-.58.58.58.58,0,1,0,1.16,0A.576.576,0,0,0,211.785,76.405Zm19.478,31.457h-8.276a.857.857,0,0,1-.606-.237l-4.889-4.507a.9.9,0,0,1-.053-1.265.884.884,0,0,1,1.265-.053l4.639,4.27h7.037v-4.454h-2.86a.9.9,0,0,1,0-1.792h3.769a.9.9,0,0,1,.9.9v6.247A.938.938,0,0,1,231.263,107.863Zm-10.714,7.182a.9.9,0,0,1-.013-1.805l3.835-.079.633-1.555a.9.9,0,1,1,1.661.685l-.857,2.109a.876.876,0,0,1-.817.554l-4.428.092h-.013Z" transform="translate(-182.713 -64.769)" fill="#4c241d"/>
  <path id="Path_69" data-name="Path 69" d="M227.575,353.773H219.5a.9.9,0,1,1,0-1.792h7.182V348.4a.9.9,0,1,1,1.792,0v4.494A.886.886,0,0,1,227.575,353.773Z" transform="translate(-190.701 -301.704)" fill="#4c241d"/>
  <path id="Path_70" data-name="Path 70" d="M281.078,330.489A1.489,1.489,0,1,1,279.589,329,1.489,1.489,0,0,1,281.078,330.489Z" transform="translate(-242.36 -285.643)" fill="#003dcb"/>
  <path id="Path_71" data-name="Path 71" d="M273.685,326.971a2.385,2.385,0,1,1,2.385-2.385A2.385,2.385,0,0,1,273.685,326.971Zm0-2.965a.58.58,0,0,0,0,1.16.576.576,0,0,0,.58-.58A.568.568,0,0,0,273.685,324.005Z" transform="translate(-236.456 -279.739)" fill="#4c241d"/>
  <path id="Path_72" data-name="Path 72" d="M264.178,274.189a1.489,1.489,0,1,1-1.489-1.489A1.5,1.5,0,0,1,264.178,274.189Z" transform="translate(-227.687 -236.762)" fill="#003dcb"/>
  <path id="Path_73" data-name="Path 73" d="M256.785,270.671a2.385,2.385,0,1,1,2.385-2.385A2.385,2.385,0,0,1,256.785,270.671Zm0-2.965a.58.58,0,1,0,0,1.16.577.577,0,0,0,.58-.58A.568.568,0,0,0,256.785,267.705Z" transform="translate(-221.783 -230.858)" fill="#4c241d"/>
  <path id="Path_74" data-name="Path 74" d="M219.178,381.089a1.489,1.489,0,1,1-1.489-1.489A1.5,1.5,0,0,1,219.178,381.089Z" transform="translate(-188.617 -329.574)" fill="#003dcb"/>
  <path id="Path_75" data-name="Path 75" d="M211.785,284.818a2.385,2.385,0,1,1,2.385-2.385A2.385,2.385,0,0,1,211.785,284.818Zm0-2.965a.58.58,0,0,0,0,1.16.585.585,0,0,0,.58-.58A.577.577,0,0,0,211.785,281.852Zm14.088-11.861a1,1,0,0,1-.5-.145.894.894,0,0,1-.25-1.239l1.489-2.24a.894.894,0,0,1,1.489.988l-1.489,2.227A.861.861,0,0,1,225.873,269.992Z" transform="translate(-182.713 -230.917)" fill="#4c241d"/>
  <path id="Path_76" data-name="Path 76" d="M326.078,279.889a1.489,1.489,0,1,1-1.489-1.489A1.489,1.489,0,0,1,326.078,279.889Z" transform="translate(-281.429 -241.711)" fill="#003dcb"/>
  <path id="Path_77" data-name="Path 77" d="M318.685,213.1a2.385,2.385,0,1,1,2.385-2.385A2.385,2.385,0,0,1,318.685,213.1Zm0-2.965a.58.58,0,1,0,.58.58A.568.568,0,0,0,318.685,210.131Zm6.115-6.194a.875.875,0,0,1-.8-.514l-1.674-3.44a.9.9,0,0,1,1.621-.778l1.66,3.453a.9.9,0,0,1-.422,1.2A1.044,1.044,0,0,1,324.8,203.937Z" transform="translate(-275.526 -172.546)" fill="#4c241d"/>
  <path id="Path_78" data-name="Path 78" d="M376.678,229.189a1.489,1.489,0,1,1-1.489-1.489A1.489,1.489,0,0,1,376.678,229.189Z" transform="translate(-325.361 -197.692)" fill="#003dcb"/>
  <path id="Path_79" data-name="Path 79" d="M369.385,225.671a2.385,2.385,0,1,1,2.385-2.385A2.385,2.385,0,0,1,369.385,225.671Zm0-2.965a.577.577,0,0,0-.58.58.58.58,0,1,0,.58-.58Z" transform="translate(-319.544 -191.789)" fill="#4c241d"/>
  <path id="Path_80" data-name="Path 80" d="M328.978,338.189a1.489,1.489,0,1,1-1.489-1.489A1.489,1.489,0,0,1,328.978,338.189Z" transform="translate(-283.947 -292.328)" fill="#003dcb"/>
  <path id="Path_81" data-name="Path 81" d="M228.439,267.09a2.385,2.385,0,1,1,2.385-2.385A2.385,2.385,0,0,1,228.439,267.09Zm0-2.965a.576.576,0,0,0-.58.58.58.58,0,1,0,1.16,0A.576.576,0,0,0,228.439,264.125Zm-12.954,1.4H212.8a.9.9,0,0,1-.9-.9V255.3a.931.931,0,0,1,.184-.554l1.792-2.333a.887.887,0,0,1,1.252-.158.9.9,0,0,1,.158,1.265l-1.608,2.1v8.131h1.792a.9.9,0,0,1,.9.9A.883.883,0,0,1,215.485,265.522Z" transform="translate(-184.884 -218.844)" fill="#4c241d"/>
  <path id="Path_82" data-name="Path 82" d="M236.878,335.489A1.489,1.489,0,1,1,235.389,334,1.489,1.489,0,0,1,236.878,335.489Z" transform="translate(-203.985 -289.984)" fill="#003dcb"/>
  <path id="Path_83" data-name="Path 83" d="M229.585,331.971a2.385,2.385,0,1,1,2.385-2.385,2.385,2.385,0,0,1-2.385,2.385Zm0-2.965a.58.58,0,0,0,0,1.16.58.58,0,0,0,0-1.16Z" transform="translate(-198.168 -284.08)" fill="#4c241d"/>
</svg>
