<svg xmlns="http://www.w3.org/2000/svg" width="47.176" height="47.176" viewBox="0 0 47.176 47.176">
  <g id="crypto" transform="translate(-1 -1)">
    <ellipse id="Ellipse_20" data-name="Ellipse 20" cx="11" cy="11.5" rx="11" ry="11.5" transform="translate(2 13)" fill="#f5b953"/>
    <circle id="Ellipse_21" data-name="Ellipse 21" cx="8.5" cy="8.5" r="8.5" transform="translate(5 16)" fill="#fff"/>
    <ellipse id="Ellipse_22" data-name="Ellipse 22" cx="12" cy="11.5" rx="12" ry="11.5" transform="translate(24 13)" fill="#3d98f7"/>
    <path id="Path_171" data-name="Path 171" d="M18.557,29.848a3.019,3.019,0,0,0-1.231-5.218V23H15.8v1.522h-.761V23H13.522v1.522H12v1.522h.761v7.609H12v1.522h1.522V36.7h1.522V35.174H15.8V36.7h1.522v-1.63a3.019,3.019,0,0,0,1.231-5.218Zm-1.992-3.8a1.522,1.522,0,0,1,0,3.044H14.283V26.044Zm0,7.609H14.283V30.609h2.283a1.522,1.522,0,1,1,0,3.044Z" transform="translate(-2.63 -5.26)" fill="#f5b953"/>
    <g id="Group_36" data-name="Group 36" transform="translate(13.174 24.588)">
      <path id="Path_172" data-name="Path 172" d="M17,41.131V39.609A7.618,7.618,0,0,0,24.609,32h1.522A9.141,9.141,0,0,1,17,41.131Z" transform="translate(-17 -32)" fill="#f9d18b"/>
    </g>
    <g id="Group_37" data-name="Group 37" transform="translate(4.044 15.457)">
      <path id="Path_173" data-name="Path 173" d="M6.522,29.131H5A9.141,9.141,0,0,1,14.131,20v1.522A7.618,7.618,0,0,0,6.522,29.131Z" transform="translate(-5 -20)" fill="#f9d18b"/>
    </g>
    <g id="Group_38" data-name="Group 38" transform="translate(1 12.413)">
      <path id="Path_174" data-name="Path 174" d="M13.174,40.349A12.174,12.174,0,1,1,25.349,28.174,12.189,12.189,0,0,1,13.174,40.349Zm0-22.827A10.653,10.653,0,1,0,23.827,28.174,10.664,10.664,0,0,0,13.174,17.522Z" transform="translate(-1 -16)" fill="#f9d18b"/>
    </g>
    <path id="Path_175" data-name="Path 175" d="M43.174,16A12.174,12.174,0,1,0,55.349,28.174,12.189,12.189,0,0,0,43.174,16Zm0,22.827c-1.251,0-2.6-2.118-3.306-5.516a28.94,28.94,0,0,0,6.612,0C45.774,36.709,44.425,38.827,43.174,38.827Zm0-6.848a26.985,26.985,0,0,1-3.571-.234,27.4,27.4,0,0,1,0-7.141,27.322,27.322,0,0,1,7.142,0,27.4,27.4,0,0,1,0,7.141A26.985,26.985,0,0,1,43.174,31.979Zm-5.137-.5c-3.4-.707-5.516-2.055-5.516-3.306s2.118-2.6,5.516-3.306a28.94,28.94,0,0,0,0,6.612Zm5.137-13.959c1.251,0,2.6,2.118,3.307,5.515a29.069,29.069,0,0,0-6.614,0c.708-3.4,2.056-5.515,3.307-5.515Zm5.137,7.346c3.4.707,5.516,2.055,5.516,3.306s-2.118,2.6-5.516,3.306a28.94,28.94,0,0,0,0-6.612Zm5.087.339a14.245,14.245,0,0,0-5.318-1.939,14.214,14.214,0,0,0-1.939-5.318A10.685,10.685,0,0,1,53.4,25.207Zm-13.19-7.256a14.232,14.232,0,0,0-1.939,5.318,14.214,14.214,0,0,0-5.318,1.939A10.683,10.683,0,0,1,40.208,17.951Zm-7.257,13.19a14.232,14.232,0,0,0,5.318,1.939A14.214,14.214,0,0,0,40.208,38.4,10.683,10.683,0,0,1,32.951,31.141ZM46.141,38.4A14.219,14.219,0,0,0,48.08,33.08,14.214,14.214,0,0,0,53.4,31.141,10.683,10.683,0,0,1,46.141,38.4Z" transform="translate(-7.173 -3.587)" fill="#2b74ca"/>
    <g id="Group_39" data-name="Group 39" transform="translate(11.819 1)">
      <path id="Path_176" data-name="Path 176" d="M28.892,2.522A8.383,8.383,0,0,1,37.08,9.163L34.694,7.254l-.951,1.189,3.8,3.044a.762.762,0,0,0,1.07-.119l3.044-3.8-1.189-.95-1.88,2.35A9.891,9.891,0,0,0,19,10.892h1.522A8.38,8.38,0,0,1,28.892,2.522Z" transform="translate(-16.123 -1)" fill="#4d5d7a"/>
      <path id="Path_177" data-name="Path 177" d="M27.988,58.131A8.383,8.383,0,0,1,19.8,51.489l2.386,1.91.951-1.189-3.8-3.044a.763.763,0,0,0-1.07.119l-3.044,3.8,1.189.951,1.88-2.35a9.891,9.891,0,0,0,19.592-1.93H36.358A8.38,8.38,0,0,1,27.988,58.131Z" transform="translate(-15.219 -12.477)" fill="#4d5d7a"/>
    </g>
  </g>
</svg>
