<svg xmlns="http://www.w3.org/2000/svg" width="42.176" height="57.329" viewBox="0 0 42.176 57.329">
  <g id="smartphone" transform="translate(-67.667)">
    <g id="Group_47" data-name="Group 47" transform="translate(68.787 1.12)">
      <g id="Group_40" data-name="Group 40" transform="translate(4.479 46.132)">
        <path id="Path_191" data-name="Path 191" d="M117.667,426.479a4.479,4.479,0,0,0,4.479,4.479h22.021a4.479,4.479,0,0,0,4.479-4.479V422H117.667Z" transform="translate(-117.667 -422)" fill="#9edcff"/>
      </g>
      <g id="Group_41" data-name="Group 41" transform="translate(4.479)">
        <path id="Path_192" data-name="Path 192" d="M144.167,10H122.146a4.479,4.479,0,0,0-4.479,4.479v4.479h30.979V14.479A4.479,4.479,0,0,0,144.167,10Z" transform="translate(-117.667 -10)" fill="#9edcff"/>
      </g>
      <g id="Group_42" data-name="Group 42" transform="translate(4.479 8.958)">
        <path id="Path_193" data-name="Path 193" d="M117.667,127.174h30.979V90H117.667Z" transform="translate(-117.667 -90)" fill="#f9f5f3"/>
      </g>
      <g id="Group_43" data-name="Group 43" transform="translate(0 11.768)">
        <path id="Path_194" data-name="Path 194" d="M79.906,115.1h2.239v5.244H79.906a2.239,2.239,0,0,1-2.239-2.239v-.765A2.239,2.239,0,0,1,79.906,115.1Z" transform="translate(-77.667 -115.103)" fill="#e7e7ef"/>
      </g>
      <g id="Group_44" data-name="Group 44" transform="translate(35.458 11.768)">
        <path id="Path_195" data-name="Path 195" d="M396.573,115.1h-2.239v8.044h2.239a2.239,2.239,0,0,0,2.239-2.239v-3.565A2.239,2.239,0,0,0,396.573,115.1Z" transform="translate(-394.334 -115.103)" fill="#e7e7ef"/>
      </g>
      <g id="Group_45" data-name="Group 45" transform="translate(0 21.491)">
        <path id="Path_196" data-name="Path 196" d="M79.906,201.935h2.239v5.244H79.906a2.239,2.239,0,0,1-2.239-2.239v-.765A2.239,2.239,0,0,1,79.906,201.935Z" transform="translate(-77.667 -201.935)" fill="#e7e7ef"/>
      </g>
      <g id="Group_46" data-name="Group 46" transform="translate(12.97 22.149)">
        <path id="Path_197" data-name="Path 197" d="M203.855,207.808a3.641,3.641,0,0,0-3.357,2.229,3.641,3.641,0,0,0-6.914,2.187c.55,2.743,3.731,4.844,6.63,6.241l.284.136.284-.136c2.9-1.4,6.082-3.5,6.63-6.241a3.637,3.637,0,0,0-3.558-4.416Z" transform="translate(-193.501 -207.808)" fill="#ff5859"/>
      </g>
    </g>
    <g id="Group_48" data-name="Group 48" transform="translate(67.667 0)">
      <path id="Path_198" data-name="Path 198" d="M106.484,11.768h-1.12V5.6a5.6,5.6,0,0,0-5.6-5.6H77.744a5.6,5.6,0,0,0-5.6,5.6v6.17h-1.12a3.363,3.363,0,0,0-3.359,3.359v.765a3.363,3.363,0,0,0,3.359,3.359h1.12v2.239h-1.12a3.363,3.363,0,0,0-3.359,3.359v.765a3.363,3.363,0,0,0,3.359,3.359h1.12V51.731a5.6,5.6,0,0,0,5.6,5.6H99.765a5.6,5.6,0,0,0,5.6-5.6V36.575a1.12,1.12,0,1,0-2.239,0v9.557H74.385V11.2h28.739V26.5a1.12,1.12,0,1,0,2.239,0V22.052h1.12a3.363,3.363,0,0,0,3.359-3.359V15.128a3.363,3.363,0,0,0-3.359-3.359ZM71.026,17.012a1.121,1.121,0,0,1-1.12-1.12v-.765a1.121,1.121,0,0,1,1.12-1.12h1.12v3Zm0,9.723a1.121,1.121,0,0,1-1.12-1.12V24.85a1.121,1.121,0,0,1,1.12-1.12h1.12v3Zm32.1,21.636v3.359a3.363,3.363,0,0,1-3.359,3.359H77.744a3.363,3.363,0,0,1-3.359-3.359V48.371ZM74.385,8.958V5.6a3.363,3.363,0,0,1,3.359-3.359H99.765A3.363,3.363,0,0,1,103.125,5.6V8.958ZM107.6,18.692a1.121,1.121,0,0,1-1.12,1.12h-1.12v-5.8h1.12a1.121,1.121,0,0,1,1.12,1.12Z" transform="translate(-67.667 0)"/>
      <path id="Path_199" data-name="Path 199" d="M227.718,40h-5.6a1.12,1.12,0,1,0,0,2.239h5.6a1.12,1.12,0,0,0,0-2.239Z" transform="translate(-203.831 -35.521)"/>
      <circle id="Ellipse_23" data-name="Ellipse 23" cx="1.12" cy="1.12" r="1.12" transform="translate(35.458 30.416)"/>
      <path id="Path_200" data-name="Path 200" d="M191.617,199.19a4.762,4.762,0,0,0-8.01,4.383c.525,2.6,2.961,4.959,7.239,7.02a1.38,1.38,0,0,0,1.541,0c4.28-2.06,6.716-4.422,7.241-7.021a4.763,4.763,0,0,0-8.011-4.383Zm5.879,3.379a2.529,2.529,0,0,1-.059.537l0,.019c-.363,1.814-2.372,3.663-5.816,5.353-3.443-1.691-5.453-3.54-5.817-5.354l0-.018a2.522,2.522,0,0,1,4.788-1.514,1.12,1.12,0,0,0,2.064,0,2.522,2.522,0,0,1,4.847.978Z" transform="translate(-170.53 -175.659)"/>
    </g>
  </g>
</svg>
