<svg xmlns="http://www.w3.org/2000/svg" width="48.351" height="48.49" viewBox="0 0 48.351 48.49">
  <g id="influencer" transform="translate(-2.692 -2.608)">
    <path id="Path_113" data-name="Path 113" d="M42.061,50.773H17.6a1.65,1.65,0,0,1-1.65-1.65V4.758a1.65,1.65,0,0,1,1.65-1.65H42.061a1.649,1.649,0,0,1,1.65,1.65V49.122A1.649,1.649,0,0,1,42.061,50.773Z" transform="translate(-2.321 -0.088)" fill="#0ea0f3"/>
    <path id="Path_114" data-name="Path 114" d="M17.6,5.651a.825.825,0,0,1,.825-.825H43.711V4.758a1.65,1.65,0,0,0-1.65-1.65H17.6a1.65,1.65,0,0,0-1.65,1.65V49.122a1.65,1.65,0,0,0,1.65,1.65Z" transform="translate(-2.321 -0.088)" fill="#caf4ff"/>
    <path id="Path_115" data-name="Path 115" d="M43.716,4.76V8.933H15.951V4.76A1.644,1.644,0,0,1,17.6,3.11H42.067A1.649,1.649,0,0,1,43.716,4.76Z" transform="translate(-2.322 -0.088)" fill="#f9dd9d"/>
    <path id="Path_116" data-name="Path 116" d="M43.716,52v5.683a1.649,1.649,0,0,1-1.65,1.65H17.6a1.644,1.644,0,0,1-1.65-1.65V52Z" transform="translate(-2.322 -8.65)" fill="#f9dd9d"/>
    <path id="Path_117" data-name="Path 117" d="M15.951,52H17.6v7.333a1.644,1.644,0,0,1-1.65-1.65Z" transform="translate(-2.322 -8.65)" fill="#ffeecf"/>
    <path id="Path_118" data-name="Path 118" d="M43.716,4.76v.066H18.426a.826.826,0,0,0-.825.825V8.933h-1.65V4.76A1.644,1.644,0,0,1,17.6,3.11H42.067A1.649,1.649,0,0,1,43.716,4.76Z" transform="translate(-2.322 -0.088)" fill="#ffeecf"/>
    <path id="Path_119" data-name="Path 119" d="M41.974,51.1H17.51a2.065,2.065,0,0,1-2.062-2.062V4.67A2.065,2.065,0,0,1,17.51,2.608H41.974A2.065,2.065,0,0,1,44.036,4.67V49.035A2.065,2.065,0,0,1,41.974,51.1ZM17.51,3.433A1.239,1.239,0,0,0,16.273,4.67V49.035a1.239,1.239,0,0,0,1.237,1.237H41.974a1.239,1.239,0,0,0,1.237-1.237V4.67a1.239,1.239,0,0,0-1.237-1.237Z" transform="translate(-2.234)" fill="#63312d"/>
    <path id="Path_120" data-name="Path 120" d="M51.7,3.108H47.605a1.65,1.65,0,0,1,1.65,1.65V49.122a1.65,1.65,0,0,1-1.65,1.65H51.7a1.65,1.65,0,0,0,1.65-1.65V4.758a1.65,1.65,0,0,0-1.65-1.65Z" transform="translate(-7.865 -0.088)" fill="#efc36a"/>
    <path id="Path_121" data-name="Path 121" d="M51.61,51.1H47.517a.412.412,0,0,1,0-.825,1.239,1.239,0,0,0,1.237-1.237V4.67a1.239,1.239,0,0,0-1.237-1.237.412.412,0,0,1,0-.825H51.61A2.065,2.065,0,0,1,53.672,4.67V49.035A2.065,2.065,0,0,1,51.61,51.1Zm-2.443-.825H51.61a1.239,1.239,0,0,0,1.237-1.237V4.67A1.239,1.239,0,0,0,51.61,3.433H49.166A2.055,2.055,0,0,1,49.58,4.67V49.035A2.05,2.05,0,0,1,49.166,50.273Z" transform="translate(-7.778)" fill="#63312d"/>
    <path id="Path_122" data-name="Path 122" d="M15.948,9.667H43.711v.825H15.948Z" transform="translate(-2.321 -1.236)" fill="#63312d"/>
    <path id="Path_123" data-name="Path 123" d="M15.948,51.5H43.711v.825H15.948Z" transform="translate(-2.321 -8.562)" fill="#63312d"/>
    <path id="Path_124" data-name="Path 124" d="M29.733,54.709h5.022v2.864H29.733Z" transform="translate(-4.736 -9.124)" fill="#f8f3f3"/>
    <path id="Path_125" data-name="Path 125" d="M34.667,57.9H29.645a.413.413,0,0,1-.412-.412V54.621a.413.413,0,0,1,.412-.412h5.022a.413.413,0,0,1,.412.412v2.864A.412.412,0,0,1,34.667,57.9Zm-4.609-.825h4.2V55.034h-4.2Z" transform="translate(-4.648 -9.037)" fill="#63312d"/>
    <path id="Path_126" data-name="Path 126" d="M21.529,10.167,16.1,19.309h5.554l5.429-9.142Z" transform="translate(-2.348 -1.324)" fill="#f9a287"/>
    <path id="Path_127" data-name="Path 127" d="M21.566,19.634H16.012a.412.412,0,0,1-.355-.623l5.429-9.142a.412.412,0,0,1,.355-.2H27a.412.412,0,0,1,.355.623l-5.429,9.142A.413.413,0,0,1,21.566,19.634Zm-4.83-.825h4.595l4.939-8.317H21.676Z" transform="translate(-2.26 -1.236)" fill="#63312d"/>
    <path id="Path_128" data-name="Path 128" d="M14.8,10.167,9.367,19.309h5.554l5.429-9.142Z" transform="translate(-1.169 -1.324)" fill="#f8f3f3"/>
    <path id="Path_129" data-name="Path 129" d="M14.833,19.634H9.279a.412.412,0,0,1-.355-.623l5.429-9.142a.412.412,0,0,1,.355-.2h5.554a.412.412,0,0,1,.355.623l-5.429,9.142a.411.411,0,0,1-.354.2ZM10,18.809H14.6l4.939-8.317H14.943Z" transform="translate(-1.081 -1.236)" fill="#63312d"/>
    <path id="Path_130" data-name="Path 130" d="M34.995,10.167l-5.429,9.142H35.12l5.429-9.142Z" transform="translate(-4.706 -1.324)" fill="#f9a287"/>
    <path id="Path_131" data-name="Path 131" d="M35.032,19.634H29.479a.412.412,0,0,1-.355-.623l5.429-9.142a.412.412,0,0,1,.355-.2h5.554a.412.412,0,0,1,.355.623l-5.429,9.142A.413.413,0,0,1,35.032,19.634ZM30.2,18.809H34.8l4.939-8.317H35.142Z" transform="translate(-4.619 -1.236)" fill="#63312d"/>
    <path id="Path_132" data-name="Path 132" d="M47.28,10.167H41.728L36.3,19.309H41.85Z" transform="translate(-5.885 -1.324)" fill="#f8f3f3"/>
    <path id="Path_133" data-name="Path 133" d="M41.763,19.634H36.211a.412.412,0,0,1-.355-.623l5.429-9.142a.412.412,0,0,1,.355-.2h5.551a.412.412,0,0,1,.355.623l-5.429,9.142A.412.412,0,0,1,41.763,19.634Zm-4.827-.825h4.592l4.939-8.317H41.875Z" transform="translate(-5.798 -1.236)" fill="#63312d"/>
    <path id="Path_134" data-name="Path 134" d="M43.032,19.309h2.362l3.065-5.162v-3.98Z" transform="translate(-7.064 -1.324)" fill="#d1d1d1"/>
    <path id="Path_135" data-name="Path 135" d="M45.306,19.634H42.945a.412.412,0,0,1-.356-.623l5.427-9.142a.413.413,0,0,1,.768.21v3.98a.41.41,0,0,1-.058.21l-3.066,5.162A.414.414,0,0,1,45.306,19.634Zm-1.637-.825h1.4l2.888-4.863V11.582Z" transform="translate(-6.977 -1.236)" fill="#63312d"/>
    <path id="Path_136" data-name="Path 136" d="M28.262,10.167l-5.429,9.142h5.554l5.429-9.142Z" transform="translate(-3.527 -1.324)" fill="#f8f3f3"/>
    <path id="Path_137" data-name="Path 137" d="M28.3,19.634H22.745a.412.412,0,0,1-.355-.623L27.82,9.869a.412.412,0,0,1,.355-.2h5.553a.412.412,0,0,1,.355.623l-5.429,9.142A.412.412,0,0,1,28.3,19.634Zm-4.83-.825h4.595L33,10.492H28.41Z" transform="translate(-3.44 -1.236)" fill="#63312d"/>
    <path id="Path_138" data-name="Path 138" d="M9.367,21.25v1.67a2.777,2.777,0,1,0,5.553,0V21.25Z" transform="translate(-1.169 -3.265)" fill="#f8f3f3"/>
    <path id="Path_139" data-name="Path 139" d="M16.1,21.25v1.67a2.777,2.777,0,0,0,5.554,0V21.25Z" transform="translate(-2.348 -3.265)" fill="#f9a287"/>
    <path id="Path_140" data-name="Path 140" d="M22.833,21.25v1.67a2.777,2.777,0,0,0,5.554,0V21.25Z" transform="translate(-3.527 -3.265)" fill="#f8f3f3"/>
    <path id="Path_141" data-name="Path 141" d="M29.566,21.25v1.67a2.777,2.777,0,1,0,5.553,0V21.25Z" transform="translate(-4.706 -3.265)" fill="#f9a287"/>
    <g id="Group_27" data-name="Group 27" transform="translate(7.786 17.573)">
      <path id="Path_142" data-name="Path 142" d="M12.056,26.022a3.192,3.192,0,0,1-3.189-3.189v-1.67a.413.413,0,0,1,.412-.412h5.554a.413.413,0,0,1,.412.412v1.67a3.194,3.194,0,0,1-3.19,3.19ZM9.692,21.575v1.257a2.364,2.364,0,0,0,4.728,0V21.575Z" transform="translate(-8.867 -20.75)" fill="#63312d"/>
      <path id="Path_143" data-name="Path 143" d="M18.79,26.022a3.193,3.193,0,0,1-3.19-3.189v-1.67a.413.413,0,0,1,.412-.412h5.554a.413.413,0,0,1,.412.412v1.67a3.193,3.193,0,0,1-3.189,3.19Zm-2.365-4.447v1.257a2.365,2.365,0,0,0,4.729,0V21.575Z" transform="translate(-10.046 -20.75)" fill="#63312d"/>
      <path id="Path_144" data-name="Path 144" d="M25.522,26.022a3.192,3.192,0,0,1-3.189-3.189v-1.67a.413.413,0,0,1,.412-.412H28.3a.413.413,0,0,1,.412.412v1.67a3.193,3.193,0,0,1-3.19,3.19Zm-2.364-4.447v1.257a2.365,2.365,0,0,0,4.729,0V21.575Z" transform="translate(-11.225 -20.75)" fill="#63312d"/>
      <path id="Path_145" data-name="Path 145" d="M32.256,26.022a3.192,3.192,0,0,1-3.189-3.189v-1.67a.413.413,0,0,1,.412-.412h5.553a.413.413,0,0,1,.412.412v1.67a3.194,3.194,0,0,1-3.189,3.19Zm-2.365-4.447v1.257a2.364,2.364,0,0,0,4.728,0V21.575Z" transform="translate(-12.404 -20.75)" fill="#63312d"/>
    </g>
    <path id="Path_146" data-name="Path 146" d="M39.666,21.25v4.442l2.363,0a2.777,2.777,0,0,0,2.777-2.777V21.25Z" transform="translate(-6.475 -3.265)" fill="#d1d1d1"/>
    <path id="Path_147" data-name="Path 147" d="M41.942,26.022l-2.364,0a.412.412,0,0,1-.412-.412V21.162a.413.413,0,0,1,.412-.412h5.14a.413.413,0,0,1,.412.412v1.67a3.193,3.193,0,0,1-3.189,3.19Zm-1.951-.829,1.952,0a2.366,2.366,0,0,0,2.363-2.364V21.575H39.991Z" transform="translate(-6.387 -3.177)" fill="#63312d"/>
    <path id="Path_148" data-name="Path 148" d="M36.3,21.25v1.67a2.777,2.777,0,0,0,5.554,0V21.25Z" transform="translate(-5.885 -3.265)" fill="#f8f3f3"/>
    <path id="Path_149" data-name="Path 149" d="M38.989,26.022a3.193,3.193,0,0,1-3.19-3.189v-1.67a.413.413,0,0,1,.412-.412h5.554a.413.413,0,0,1,.412.412v1.67a3.193,3.193,0,0,1-3.189,3.19Zm-2.365-4.447v1.257a2.365,2.365,0,0,0,4.729,0V21.575Z" transform="translate(-5.798 -3.177)" fill="#63312d"/>
    <path id="Path_150" data-name="Path 150" d="M22.4,37.468a7.921,7.921,0,1,0,7.921-7.921A7.922,7.922,0,0,0,22.4,37.468Z" transform="translate(-3.451 -4.718)" fill="#f8f3f3"/>
    <path id="Path_151" data-name="Path 151" d="M30.231,45.713a8.334,8.334,0,1,1,8.334-8.333A8.343,8.343,0,0,1,30.231,45.713Zm0-15.842a7.509,7.509,0,1,0,7.509,7.51,7.518,7.518,0,0,0-7.509-7.51Z" transform="translate(-3.363 -4.63)" fill="#63312d"/>
    <path id="Path_152" data-name="Path 152" d="M36.148,37.217a.691.691,0,0,0-.7-.63H32.508a9.194,9.194,0,0,0,1.163-2.317.851.851,0,0,0-.336-.916.822.822,0,0,0-1.15.251l-.12.191a4.771,4.771,0,0,1-1.317,1.386l-1.64,1.142v5.151l.594.215a3.686,3.686,0,0,0,1.256.22h3.766a.692.692,0,0,0,.7-.629.666.666,0,0,0-.665-.7h.2a.69.69,0,0,0,.7-.63.667.667,0,0,0-.665-.7h.2a.691.691,0,0,0,.7-.629.666.666,0,0,0-.665-.7h.245a.664.664,0,0,0,.665-.7Z" transform="translate(-4.626 -5.36)" fill="#f9dd9d"/>
    <path id="Path_153" data-name="Path 153" d="M35.435,38.243h-.989v-.825h.989a.253.253,0,0,0,0-.506H32.459a.412.412,0,0,1-.357-.619c.091-.158.187-.316.285-.476a6.175,6.175,0,0,0,.845-1.778.408.408,0,0,0-.745-.3l-.12.192a5.15,5.15,0,0,1-1.43,1.5L29.3,36.574l-.471-.676,1.639-1.142a4.322,4.322,0,0,0,1.2-1.265l.12-.192a1.233,1.233,0,0,1,2.249.917,6.262,6.262,0,0,1-.849,1.872h2.247a1.078,1.078,0,0,1,0,2.155Z" transform="translate(-4.576 -5.273)" fill="#63312d"/>
    <path id="Path_154" data-name="Path 154" d="M36.331,40.57h-.989v-.825h.989a.253.253,0,1,0,0-.506h-.989v-.825h.989a1.078,1.078,0,1,1,0,2.155Z" transform="translate(-5.718 -6.271)" fill="#63312d"/>
    <path id="Path_155" data-name="Path 155" d="M36.043,42.185h-.988V41.36h.988a.254.254,0,0,0,0-.507h-.988v-.825h.988a1.079,1.079,0,0,1,0,2.157Z" transform="translate(-5.668 -6.553)" fill="#63312d"/>
    <path id="Path_156" data-name="Path 156" d="M34.735,43.8H30.884a3.8,3.8,0,0,1-1.306-.229l-.637-.23.28-.775.638.23a2.977,2.977,0,0,0,1.024.18h3.851a.253.253,0,1,0,0-.506h-.989v-.825h.989a1.078,1.078,0,1,1,0,2.155Z" transform="translate(-4.597 -6.836)" fill="#63312d"/>
    <path id="Path_157" data-name="Path 157" d="M26.356,36.823h2.272v5.6H26.356Z" transform="translate(-4.144 -5.992)" fill="#006097"/>
    <path id="Path_158" data-name="Path 158" d="M28.54,42.747H26.268a.413.413,0,0,1-.412-.412v-5.6a.413.413,0,0,1,.412-.412H28.54a.413.413,0,0,1,.412.412v5.6A.412.412,0,0,1,28.54,42.747Zm-1.859-.825h1.447V37.148H26.681Z" transform="translate(-4.057 -5.904)" fill="#63312d"/>
    <path id="Path_159" data-name="Path 159" d="M41.6,37.468a7.921,7.921,0,1,0,7.921-7.921A7.922,7.922,0,0,0,41.6,37.468Z" transform="translate(-6.814 -4.718)" fill="#f8f3f3"/>
    <path id="Path_160" data-name="Path 160" d="M49.436,45.713a8.334,8.334,0,1,1,8.334-8.333A8.343,8.343,0,0,1,49.436,45.713Zm0-15.842a7.509,7.509,0,1,0,7.509,7.51,7.518,7.518,0,0,0-7.509-7.51Z" transform="translate(-6.726 -4.63)" fill="#63312d"/>
    <path id="Path_161" data-name="Path 161" d="M47.411,34.439H53.3a1.047,1.047,0,0,1,1.048,1.048V40.76A1.048,1.048,0,0,1,53.3,41.808h-.43v2.164L49.9,41.808H47.411a1.047,1.047,0,0,1-1.047-1.048V35.487A1.048,1.048,0,0,1,47.411,34.439Z" transform="translate(-7.648 -5.574)" fill="#f6f9fc"/>
    <path id="Path_162" data-name="Path 162" d="M48.607,37.106h4.329v.825H48.607Z" transform="translate(-8.041 -6.041)" fill="#63312d"/>
    <path id="Path_163" data-name="Path 163" d="M48.607,39.718h4.329v.825H48.607Z" transform="translate(-8.041 -6.499)" fill="#63312d"/>
    <path id="Path_164" data-name="Path 164" d="M52.787,44.3a.408.408,0,0,1-.243-.079l-2.869-2.084H47.323a1.462,1.462,0,0,1-1.459-1.461V35.4a1.461,1.461,0,0,1,1.459-1.46h5.894a1.462,1.462,0,0,1,1.46,1.46v5.273a1.462,1.462,0,0,1-1.46,1.461H53.2v1.751a.414.414,0,0,1-.412.412Zm-5.464-9.532a.635.635,0,0,0-.634.635v5.273a.636.636,0,0,0,.634.636H49.81a.41.41,0,0,1,.243.079l2.322,1.688V41.721a.413.413,0,0,1,.412-.412h.43a.637.637,0,0,0,.635-.636V35.4a.636.636,0,0,0-.635-.635Z" transform="translate(-7.56 -5.487)" fill="#63312d"/>
    <path id="Path_165" data-name="Path 165" d="M3.192,37.468a7.921,7.921,0,1,0,7.921-7.921,7.922,7.922,0,0,0-7.921,7.921Z" transform="translate(-0.088 -4.718)" fill="#f8f3f3"/>
    <path id="Path_166" data-name="Path 166" d="M11.026,45.713a8.334,8.334,0,1,1,8.334-8.333,8.343,8.343,0,0,1-8.334,8.333Zm0-15.842a7.509,7.509,0,1,0,7.509,7.51,7.518,7.518,0,0,0-7.509-7.51Z" transform="translate(0 -4.63)" fill="#63312d"/>
    <path id="Path_167" data-name="Path 167" d="M13.905,35.353a1.989,1.989,0,0,0-1.945,1.573,1.99,1.99,0,0,0-3.936.417c0,3.087,3.936,5.409,3.936,5.409S15.9,40.2,15.9,37.343a1.991,1.991,0,0,0-1.99-1.99Z" transform="translate(-0.934 -5.734)" fill="#f9a287"/>
    <path id="Path_168" data-name="Path 168" d="M11.873,43.076a.415.415,0,0,1-.21-.057c-.169-.1-4.14-2.479-4.14-5.763a2.4,2.4,0,0,1,4.349-1.406,2.4,2.4,0,0,1,4.349,1.406c0,3.044-3.955,5.645-4.124,5.754a.411.411,0,0,1-.224.066Zm-1.946-7.4a1.58,1.58,0,0,0-1.578,1.578c0,2.415,2.715,4.386,3.515,4.914.8-.568,3.533-2.685,3.533-4.914a1.578,1.578,0,0,0-3.121-.331.412.412,0,0,1-.807,0,1.585,1.585,0,0,0-1.543-1.247Z" transform="translate(-0.846 -5.647)" fill="#63312d"/>
  </g>
</svg>
