<svg xmlns="http://www.w3.org/2000/svg" width="69.751" height="69.787" viewBox="0 0 69.751 69.787">
  <path id="Path_101" data-name="Path 101" d="M12.912,64.71a1.362,1.362,0,0,0-2.221,1.578l2.05,2.888A1.362,1.362,0,1,0,14.962,67.6Zm15.536-7.239a20.059,20.059,0,0,0-8.485-12.6l-4.768-3.2a4.8,4.8,0,0,0-6.068.62V25.875a4.564,4.564,0,0,0-9.128,0V47A13.194,13.194,0,0,0,2.452,54.68L4.881,58.1A1.363,1.363,0,0,0,7.1,56.521L4.67,53.1A10.49,10.49,0,0,1,2.725,47V25.884a1.839,1.839,0,0,1,3.678,0V42.641a9.523,9.523,0,0,0,2.452,6.392c.068.082.136.161.213.24.9.954,1.967,2.088,2.97,3.152l1.4,1.5.014.014c1.2,1.276,2.084,2.218,2.1,2.238a1.362,1.362,0,1,0,1.985-1.866L14.1,50.637l-3.125-3.324-.023-.027a2.3,2.3,0,0,1,.041-3.011,2.06,2.06,0,0,1,2.684-.341l4.768,3.2a17.352,17.352,0,0,1,7.339,10.9l2.231,10.64a1.362,1.362,0,0,0,1.332,1.083,1.412,1.412,0,0,0,.281-.027,1.362,1.362,0,0,0,1.049-1.614ZM10.081,60.728a1.363,1.363,0,0,0-2.221,1.58l.011.014a1.362,1.362,0,1,0,2.218-1.58ZM68.045,22.319a4.561,4.561,0,0,0-7.415,3.556V42.291a4.8,4.8,0,0,0-6.076-.62l-4.768,3.2a20.07,20.07,0,0,0-8.487,12.6L39.071,68.116a1.362,1.362,0,0,0,1.053,1.613,1.412,1.412,0,0,0,.281.027,1.362,1.362,0,0,0,1.331-1.082l2.231-10.64a17.348,17.348,0,0,1,7.339-10.9l4.768-3.2a2.057,2.057,0,0,1,2.682.343,2.3,2.3,0,0,1,.045,3.011l-.025.027L52.211,54.3A1.364,1.364,0,0,0,54.2,56.166c.016-.022,5.586-5.94,6.489-6.9.074-.078.136-.159.211-.24a9.523,9.523,0,0,0,2.452-6.389V25.881a1.836,1.836,0,1,1,3.671,0V47a10.49,10.49,0,0,1-1.945,6.1L54.788,67.6a1.363,1.363,0,0,0,2.221,1.58l10.29-14.5A13.194,13.194,0,0,0,69.751,47V25.884a4.542,4.542,0,0,0-1.706-3.565ZM48.06,43a1.362,1.362,0,0,0,1.362-1.362V36.747a4.78,4.78,0,0,0-.018-.5h6.28a1.362,1.362,0,0,0,1.362-1.362V32.337a6.381,6.381,0,0,0-4.918-6.226l-2.422-.58V25.1a6.094,6.094,0,0,0,2.606-5V16.95a6.092,6.092,0,0,0-10.054-4.632,7.956,7.956,0,0,0-14.74.008A6.092,6.092,0,0,0,17.451,16.95V20.1a6.094,6.094,0,0,0,2.61,5v.436l-2.425.578a6.381,6.381,0,0,0-4.914,6.226v2.548a1.362,1.362,0,0,0,1.362,1.362h6.267c-.011.163-.018.33-.018.5v4.9A1.362,1.362,0,0,0,21.7,43.01h8.188a1.362,1.362,0,1,0,0-2.725H28.472V37.464a1.362,1.362,0,1,0-2.725,0V40.28H23.053V36.738a5.64,5.64,0,0,1,4.34-5.5l3.738-.9,2.5,5.692a1.36,1.36,0,0,0,2.494,0l2.5-5.684,3.726.89a5.64,5.64,0,0,1,4.343,5.5v3.531H44V37.464a1.362,1.362,0,1,0-2.725,0V40.28H39.735a1.362,1.362,0,1,0,0,2.725Zm-17.5-16.528a6.267,6.267,0,0,0-1.09-.368l-2.432-.586V25.1a6.215,6.215,0,0,0,1.181-1.079A8,8,0,0,0,30.56,26.37ZM20.179,20.1v-.65h1.9a12.641,12.641,0,0,0,4.846-.965l0,1.615a3.373,3.373,0,0,1-6.743,0Zm9.482-.4v-1.44h1.862a8.583,8.583,0,0,0,5.787-2.234l2.809,1.648V19.9a5.231,5.231,0,1,1-10.46-.2ZM39.2,26.481v-.093a8.016,8.016,0,0,0,2.364-2.357A6.131,6.131,0,0,0,42.732,25.1v.422l-2.434.586a6.3,6.3,0,0,0-1.1.372Zm3.646-6.38V18.488a12.659,12.659,0,0,0,4.836.962h1.907v.65a3.373,3.373,0,0,1-6.743,0Zm3.373-6.526a3.379,3.379,0,0,1,3.373,3.154h-1.9a9.922,9.922,0,0,1-4.567-1.117,3.376,3.376,0,0,1,3.1-2.035ZM29.66,15.314a5.231,5.231,0,0,1,10.4-.831l-2.293-1.346a1.362,1.362,0,0,0-1.734.3,5.869,5.869,0,0,1-4.509,2.1H29.658v-.225Zm-6.11-1.736a3.379,3.379,0,0,1,3.1,2.043,9.926,9.926,0,0,1-4.568,1.113H20.185A3.376,3.376,0,0,1,23.55,13.578Zm3.208,15.013a8.351,8.351,0,0,0-5.79,4.932h-5.52V32.337a3.665,3.665,0,0,1,2.823-3.576l3.468-.831A1.362,1.362,0,0,0,22.786,26.6v-.458a6.155,6.155,0,0,0,.763.05,6.049,6.049,0,0,0,.76-.049V26.6a1.362,1.362,0,0,0,1.108,1.342l2.03.488Zm8.117,3.515-1.594-3.633V27.5a7.937,7.937,0,0,0,3.193,0v.973ZM42.981,28.6l-.681-.163,2.043-.49A1.37,1.37,0,0,0,45.457,26.6a.263.263,0,0,0,0-.033V26.15a6.086,6.086,0,0,0,.759.049,6.156,6.156,0,0,0,.763-.049v.458a1.362,1.362,0,0,0,1.049,1.325l3.469.826a3.667,3.667,0,0,1,2.824,3.579V33.52H48.781a8.351,8.351,0,0,0-5.794-4.926ZM34.875,40.28a1.362,1.362,0,1,0,.963.4,1.362,1.362,0,0,0-.963-.4Zm0-35.512a1.362,1.362,0,0,0,1.362-1.362V1.362a1.362,1.362,0,0,0-2.725,0V3.406A1.362,1.362,0,0,0,34.875,4.768Zm-6.948,1.6a1.363,1.363,0,0,0,1.926-1.928L28.427,3.016A1.363,1.363,0,0,0,26.5,4.944ZM40.836,6.8a1.362,1.362,0,0,0,.963-.4l1.417-1.42a1.363,1.363,0,1,0-1.924-1.932l-1.417,1.42A1.362,1.362,0,0,0,40.838,6.8Z" transform="translate(0)"/>
</svg>
