<svg xmlns="http://www.w3.org/2000/svg" width="70.039" height="70.039" viewBox="0 0 70.039 70.039">
  <path id="Market_analysis_engine" d="M19.2,4.519A14.686,14.686,0,1,0,33.89,19.2,14.686,14.686,0,0,0,19.2,4.519Zm0,27.112A12.426,12.426,0,1,1,31.455,17.213L23.7,25.488l-5.154-5.154H11.3v2.259h6.312l6.143,6.142,7.82-8.343A12.44,12.44,0,0,1,19.2,31.63Zm-1.13,27.112h2.259V61H18.074Zm0-4.519h2.259v2.259H18.074Zm0,9.037h2.259V65.52H18.074ZM61,67.779H58.742V36.149H49.7v31.63H47.446V40.668H38.408V67.779H36.149V45.186H27.112V70.039H70.039V29.371H61Zm-27.112,0H29.371V47.446H33.89ZM51.964,38.408h4.519V67.779H51.964Zm-11.3,4.519h4.519V67.779H40.668Zm22.593-11.3h4.519V67.779H63.261ZM15.815,18.074H13.556V15.815h2.259Zm4.519,0H18.074V15.815h2.259Zm9.037,0H27.112V15.815h2.259Zm-18.074,0H9.037V15.815H11.3Zm13.556,0H22.593V15.815h2.259ZM67.779,11.3H65.52v6.778H63.261V15.815H61v2.259H58.742V11.3H56.483v6.778H54.223V13.556H51.964v4.519H50.213L40.689,7.363l-3.9,4.157A19.194,19.194,0,1,0,14.686,37.843V43.8a3.371,3.371,0,0,0-1.13,2.513V64.39a5.648,5.648,0,1,0,11.3,0V46.316a3.375,3.375,0,0,0-1.13-2.508V37.843A19.12,19.12,0,0,0,37.649,13.909l3-3.2,8.55,9.622H70.039V18.074H67.779ZM22.593,64.39a3.389,3.389,0,1,1-6.778,0V46.316a1.13,1.13,0,0,1,1.13-1.13h4.519a1.13,1.13,0,0,1,1.13,1.13Zm-1.13-21.463H16.945v-4.66a18.145,18.145,0,0,0,4.519,0ZM19.2,36.149A16.945,16.945,0,1,1,36.149,19.2,16.945,16.945,0,0,1,19.2,36.149Z" fill="#006097"/>
</svg>
