<svg xmlns="http://www.w3.org/2000/svg" width="88.883" height="88.883" viewBox="0 0 88.883 88.883">
  <g id="Group_46" data-name="Group 46" transform="translate(-411.416 -1072.865)">
    <path id="Path_102" data-name="Path 102" d="M78.069,26.7a20.033,20.033,0,0,0-36.56-7.569A16.474,16.474,0,0,0,18.975,36.977,12.874,12.874,0,0,0,23,62.08h54.84a17.691,17.691,0,0,0,.226-35.38Z" transform="translate(403.048 1064.602)" fill="#fff"/>
    <path id="Path_103" data-name="Path 103" d="M133,205.838c0-4.218,9.565-7.638,21.353-7.638s21.353,3.42,21.353,7.638V243.3c0,4.218-9.565,7.638-21.353,7.638S133,247.52,133,243.3Z" transform="translate(301.505 909.073)" fill="#002afc"/>
    <path id="Path_104" data-name="Path 104" d="M175.706,326.682c0,4.218-9.565,7.638-21.353,7.638S133,330.9,133,326.682V314.2c0,4.219,9.565,7.638,21.353,7.638s21.353-3.42,21.353-7.638Z" transform="translate(301.505 813.211)" fill="#0e96c5"/>
    <ellipse id="Ellipse_15" data-name="Ellipse 15" cx="21.353" cy="7.638" rx="21.353" ry="7.638" transform="translate(434.505 1107.272)" fill="#009ffc"/>
    <g id="Group_45" data-name="Group 45" transform="translate(411.416 1072.865)">
      <path id="Path_105" data-name="Path 105" d="M83.276,22.481A19.376,19.376,0,0,0,71.124,16.77a21.78,21.78,0,0,0-38.661-8,18.065,18.065,0,0,0-5.625-.885,17.8,17.8,0,0,0-5.659.9,1.735,1.735,0,1,0,1.076,3.3,14.635,14.635,0,0,1,4.583-.729,14.836,14.836,0,0,1,5.625,1.111,1.733,1.733,0,0,0,2.118-.66A18.32,18.32,0,0,1,68,18.714a1.713,1.713,0,0,0,1.684,1.441,15.955,15.955,0,0,1-.226,31.908H67.53V42.029c0-2-1.285-4.843-7.413-7.031a48.235,48.235,0,0,0-15.676-2.344A48.16,48.16,0,0,0,28.766,35c-6.128,2.187-7.413,5.034-7.413,7.031V52.08H14.617a11.128,11.128,0,0,1-3.489-21.7,1.744,1.744,0,0,0,1.18-1.927,15.463,15.463,0,0,1-.191-2.361A14.258,14.258,0,0,1,12.76,21.8,1.741,1.741,0,1,0,9.426,20.8a18.218,18.218,0,0,0-.712,6.823A14.462,14.462,0,0,0,0,40.952a14.625,14.625,0,0,0,14.617,14.6h6.736V79.509c0,2,1.285,4.843,7.413,7.031a48.085,48.085,0,0,0,15.676,2.344A48.085,48.085,0,0,0,60.118,86.54c6.128-2.187,7.413-5.034,7.413-7.031V55.552h1.927A19.42,19.42,0,0,0,83.276,22.481ZM64.058,54.528c0,.9-1.337,2.413-5.1,3.767A44.979,44.979,0,0,1,44.442,60.43a44.979,44.979,0,0,1-14.513-2.135c-3.767-1.354-5.1-2.864-5.1-3.767V47.219a18.686,18.686,0,0,0,3.941,1.858A48.235,48.235,0,0,0,44.442,51.42a48.16,48.16,0,0,0,15.676-2.344,20.551,20.551,0,0,0,3.941-1.858ZM24.825,59.7a18.686,18.686,0,0,0,3.941,1.858A48.235,48.235,0,0,0,44.442,63.9a48.16,48.16,0,0,0,15.676-2.344A20.551,20.551,0,0,0,64.058,59.7V67.01c0,.9-1.337,2.413-5.1,3.767a44.98,44.98,0,0,1-14.513,2.135,44.98,44.98,0,0,1-14.513-2.135c-3.767-1.354-5.1-2.864-5.1-3.767Zm5.1-21.422a44.979,44.979,0,0,1,14.513-2.135,44.979,44.979,0,0,1,14.513,2.135c3.767,1.354,5.1,2.864,5.1,3.767s-1.337,2.413-5.1,3.767a44.979,44.979,0,0,1-14.513,2.135,44.979,44.979,0,0,1-14.513-2.135c-3.767-1.354-5.1-2.864-5.1-3.767S26.162,39.633,29.929,38.279Zm29.026,45a44.98,44.98,0,0,1-14.513,2.135,44.98,44.98,0,0,1-14.513-2.135c-3.767-1.354-5.1-2.864-5.1-3.767V72.2a18.686,18.686,0,0,0,3.941,1.858A48.235,48.235,0,0,0,44.442,76.4a48.16,48.16,0,0,0,15.676-2.344A20.551,20.551,0,0,0,64.058,72.2v7.309c0,.9-1.337,2.413-5.1,3.767Z" transform="translate(0 0)"/>
      <path id="Path_106" data-name="Path 106" d="M78.636,77.372a1.826,1.826,0,0,0,1.233-.5,1.719,1.719,0,0,0,.5-1.233,1.825,1.825,0,0,0-.5-1.233,1.718,1.718,0,0,0-1.233-.5,1.793,1.793,0,0,0-1.233.5,1.719,1.719,0,0,0-.5,1.233,1.825,1.825,0,0,0,.5,1.233A1.793,1.793,0,0,0,78.636,77.372Z" transform="translate(-63.55 -61.071)"/>
    </g>
  </g>
</svg>
