<svg xmlns="http://www.w3.org/2000/svg" width="66.155" height="64.439" viewBox="0 0 66.155 64.439">
  <g id="Group_47" data-name="Group 47" transform="translate(-418.32 -600.44)">
    <circle id="Ellipse_11" data-name="Ellipse 11" cx="12.461" cy="12.461" r="12.461" transform="translate(437.819 620.228)" fill="#009ffc"/>
    <path id="Path_84" data-name="Path 84" d="M76.228,53.383H67.921a2.077,2.077,0,0,1-2.077-2.077V43a2.077,2.077,0,0,1,2.077-2.077h8.307A2.077,2.077,0,0,1,78.3,43v8.307A2.077,2.077,0,0,1,76.228,53.383ZM51.306,78.3H43a2.077,2.077,0,0,1-2.077-2.077V67.921A2.077,2.077,0,0,1,43,65.844h8.307a2.077,2.077,0,0,1,2.077,2.077v8.307A2.077,2.077,0,0,1,51.306,78.3ZM26.384,53.383H18.077A2.077,2.077,0,0,1,16,51.306V43a2.077,2.077,0,0,1,2.077-2.077h8.307A2.077,2.077,0,0,1,28.461,43v8.307A2.077,2.077,0,0,1,26.384,53.383ZM51.306,28.461H43a2.077,2.077,0,0,1-2.077-2.077V18.077A2.077,2.077,0,0,1,43,16h8.307a2.077,2.077,0,0,1,2.077,2.077v8.307A2.077,2.077,0,0,1,51.306,28.461Z" transform="translate(403.128 585.536)" fill="#06bff9"/>
    <circle id="Ellipse_12" data-name="Ellipse 12" cx="2.077" cy="2.077" r="2.077" transform="translate(424.319 659.688)" fill="#ff826e"/>
    <path id="Path_85" data-name="Path 85" d="M381.5,21.192a3.115,3.115,0,0,1,0,6.23H371.115a3.115,3.115,0,0,1,0-6.23,5.192,5.192,0,0,1,10.384,0Z" transform="translate(96.818 585.536)" fill="#e6e9ed"/>
    <circle id="Ellipse_13" data-name="Ellipse 13" cx="9.346" cy="9.346" r="9.346" transform="translate(419.128 601.536)" fill="#e6e9ed"/>
    <path id="Path_86" data-name="Path 86" d="M41.288,96a7.252,7.252,0,0,1,6.957,5.182l.01.01c-.13.13-.239.249-.363.374a9.338,9.338,0,0,1-13.572-.374l.01-.01A7.252,7.252,0,0,1,41.288,96Z" transform="translate(387.186 515.92)" fill="#006199"/>
    <circle id="Ellipse_14" data-name="Ellipse 14" cx="3.115" cy="3.115" r="3.115" transform="translate(425.358 605.689)" fill="#0e96c5"/>
    <path id="Path_87" data-name="Path 87" d="M370.691,386.077v10.384a2.077,2.077,0,0,1-2.077,2.077H354.077A2.077,2.077,0,0,1,352,396.461V386.077A2.077,2.077,0,0,1,354.077,384h14.538A2.077,2.077,0,0,1,370.691,386.077Z" transform="translate(110.741 265.304)" fill="#006199"/>
    <path id="Path_88" data-name="Path 88" d="M37.549,428.159a3.115,3.115,0,1,0,3.115,3.115A3.115,3.115,0,0,0,37.549,428.159Zm0,4.154a1.038,1.038,0,1,1,1.038-1.038A1.038,1.038,0,0,1,37.549,432.313Zm-5.139-6.179,1.468,1.468a5.192,5.192,0,0,1,7.342,0l1.468-1.468A7.269,7.269,0,0,0,32.41,426.134Z" transform="translate(388.848 230.49)"/>
    <path id="Path_89" data-name="Path 89" d="M9.78,395.38l1.468,1.468a9.357,9.357,0,0,1,13.218,0l1.468-1.468a11.433,11.433,0,0,0-16.154,0Zm60,4.961H67.7v-4.154H65.623v4.154H63.547v-2.077H61.47v2.077H59.393v-6.23H57.316v8.307H69.777Z" transform="translate(408.54 258.308)"/>
    <path id="Path_90" data-name="Path 90" d="M68.93,32.538H60.623a3.115,3.115,0,0,0-3.115,3.115v3.115H53.3a13.425,13.425,0,0,0-3.206-7.734l9.919-9.919h7.878a4.154,4.154,0,0,0,.971-8.193,6.23,6.23,0,0,0-12.331,0,4.142,4.142,0,0,0,.587,8.154l-8.49,8.49a13.425,13.425,0,0,0-7.735-3.206V22.154h3.115a3.115,3.115,0,0,0,3.115-3.115V10.731a3.115,3.115,0,0,0-3.115-3.115H35.7a3.115,3.115,0,0,0-3.115,3.115v8.307A3.115,3.115,0,0,0,35.7,22.154h3.115v4.207a13.425,13.425,0,0,0-7.734,3.206l-5-5a10.413,10.413,0,1,0-1.469,1.468l5,5a13.435,13.435,0,0,0-3.206,7.734H22.2V35.653a3.115,3.115,0,0,0-3.115-3.115H10.779a3.115,3.115,0,0,0-3.115,3.115V43.96a3.115,3.115,0,0,0,3.115,3.115h8.307A3.115,3.115,0,0,0,22.2,43.96V40.845h4.207a13.425,13.425,0,0,0,3.206,7.734l-7.109,7.108,1.469,1.469,7.108-7.109a13.425,13.425,0,0,0,7.734,3.206V57.46H35.7a3.115,3.115,0,0,0-3.115,3.115v8.307A3.115,3.115,0,0,0,35.7,72h8.307a3.115,3.115,0,0,0,3.115-3.115V60.575a3.115,3.115,0,0,0-3.115-3.115H40.893V53.253a13.425,13.425,0,0,0,7.734-3.206L54,55.422A3.115,3.115,0,0,0,51.277,58.5V68.882A3.115,3.115,0,0,0,54.392,72H68.93a3.115,3.115,0,0,0,3.115-3.115V58.5a3.115,3.115,0,0,0-3.115-3.115H56.9l-6.8-6.8A13.426,13.426,0,0,0,53.3,40.845h4.207V43.96a3.115,3.115,0,0,0,3.115,3.115H68.93a3.115,3.115,0,0,0,3.115-3.115V35.653A3.115,3.115,0,0,0,68.93,32.538ZM45.047,15.923H34.663V13.846H45.047ZM35.7,9.693h8.307a1.038,1.038,0,0,1,1.038,1.038V11.77H34.663V10.731A1.038,1.038,0,0,1,35.7,9.693Zm-1.038,9.346V18H45.047v1.038a1.038,1.038,0,0,1-1.038,1.038H35.7A1.038,1.038,0,0,1,34.663,19.038ZM10.779,34.615h8.307a1.038,1.038,0,0,1,1.038,1.038v1.038H9.741V35.653A1.038,1.038,0,0,1,10.779,34.615Zm9.346,4.154v2.077H9.741V38.768ZM19.086,45H10.779A1.038,1.038,0,0,1,9.741,43.96V42.922H20.125V43.96A1.038,1.038,0,0,1,19.086,45ZM34.663,63.69H45.047v2.077H34.663Zm9.346,6.23H35.7a1.038,1.038,0,0,1-1.038-1.038V67.844H45.047v1.038A1.038,1.038,0,0,1,44.008,69.921Zm1.038-9.346v1.038H34.663V60.575A1.038,1.038,0,0,1,35.7,59.537h8.307A1.038,1.038,0,0,1,45.047,60.575Zm-5.192-9.346c-1.116,0-2.305-1.586-3.124-4.154h6.25c-.82,2.567-2.009,4.154-3.126,4.154ZM36.2,45a25.681,25.681,0,0,1-.478-4.154h8.263A25.683,25.683,0,0,1,43.509,45Zm-7.715-4.154h5.162A28.348,28.348,0,0,0,34.072,45H29.694a11.285,11.285,0,0,1-1.208-4.154ZM39.855,28.384c1.116,0,2.305,1.586,3.124,4.154h-6.25C37.549,29.97,38.738,28.384,39.855,28.384Zm3.654,6.23a25.682,25.682,0,0,1,.478,4.154H35.723a25.682,25.682,0,0,1,.478-4.154Zm-9.865,4.154H28.485a11.31,11.31,0,0,1,1.208-4.154h4.378a28.348,28.348,0,0,0-.424,4.154Zm12.414,2.077H51.22A11.31,11.31,0,0,1,50.012,45H45.637a28.348,28.348,0,0,0,.424-4.154Zm0-2.077a28.348,28.348,0,0,0-.424-4.154h4.378a11.334,11.334,0,0,1,1.208,4.154Zm9.373-21.807a2.077,2.077,0,0,1,2.077-2.077h1.038V13.846a4.154,4.154,0,0,1,8.213-.881,4.163,4.163,0,0,0-3.02,4h2.077a2.077,2.077,0,1,1,2.077,2.077H57.508A2.077,2.077,0,0,1,55.431,16.962ZM48.659,32.538h-3.5a14.39,14.39,0,0,0-1.445-3.47A11.469,11.469,0,0,1,48.659,32.538ZM36,29.068a14.338,14.338,0,0,0-1.445,3.47h-3.5A11.454,11.454,0,0,1,36,29.068ZM18.048,9.693A8.316,8.316,0,0,1,26.355,18a8.232,8.232,0,0,1-1.137,4.174,8.366,8.366,0,0,0-4.055-3.525,4.154,4.154,0,1,0-6.23,0,8.372,8.372,0,0,0-4.056,3.532A8.292,8.292,0,0,1,18.048,9.693Zm-2.077,6.23A2.077,2.077,0,1,1,18.048,18,2.077,2.077,0,0,1,15.971,15.923Zm-3.679,8.054a6.2,6.2,0,0,1,11.511,0,8.274,8.274,0,0,1-11.511,0Zm18.758,23.1h3.5A14.39,14.39,0,0,0,36,50.545a11.469,11.469,0,0,1-4.949-3.47Zm12.661,3.47a14.338,14.338,0,0,0,1.445-3.47h3.5a11.454,11.454,0,0,1-4.949,3.47ZM69.969,58.5V68.882a1.038,1.038,0,0,1-1.038,1.038H54.392a1.038,1.038,0,0,1-1.038-1.038V58.5a1.038,1.038,0,0,1,1.038-1.038H68.93A1.038,1.038,0,0,1,69.969,58.5ZM60.623,34.615H68.93a1.038,1.038,0,0,1,1.038,1.038v1.038H59.585V35.653A1.038,1.038,0,0,1,60.623,34.615Zm9.346,4.154v2.077H59.585V38.768ZM68.93,45H60.623a1.038,1.038,0,0,1-1.038-1.038V42.922H69.969V43.96A1.038,1.038,0,0,1,68.93,45Z" transform="translate(412.426 592.882)"/>
  </g>
</svg>
