<svg xmlns="http://www.w3.org/2000/svg" width="69.651" height="69.651" viewBox="0 0 69.651 69.651">
  <path id="Trading_Engine" data-name="Trading Engine" d="M6.806,6.965H21.9V9.282H6.806Zm0,4.648H21.9V13.93H6.806Zm0,4.634H17.247v2.317H6.806Zm0,4.648H17.247v2.317H6.806ZM1,67.333H70.651v2.317H1ZM60.837,9.487,62.7,4.13l3.421,6.829A1.158,1.158,0,1,0,68.2,9.923L63.563.641A1.158,1.158,0,0,0,62.009.123l-9.3,4.648a1.158,1.158,0,1,0,1.036,2.072l6.72-3.367L58.642,8.723a61.952,61.952,0,0,1-53.1,41.191l.2,2.317A64.242,64.242,0,0,0,60.837,9.487ZM6.806,55.72a1.158,1.158,0,0,0-1.159,1.159v6.965A1.158,1.158,0,0,0,6.806,65H14.93a1.158,1.158,0,0,0,1.159-1.159V56.879A1.158,1.158,0,0,0,14.93,55.72Zm6.965,6.965H7.965V58.038h5.806Zm5.806-10.441A1.158,1.158,0,0,0,18.419,53.4V63.858a1.158,1.158,0,0,0,1.159,1.159H27.7a1.158,1.158,0,0,0,1.159-1.159V53.4A1.158,1.158,0,0,0,27.7,52.245H19.578Zm6.965,10.441H20.737V54.562h5.806Zm5.793-16.247A1.158,1.158,0,0,0,31.177,47.6V63.844A1.158,1.158,0,0,0,32.336,65H40.46a1.158,1.158,0,0,0,1.159-1.159V47.6a1.158,1.158,0,0,0-1.159-1.159ZM39.3,62.686H33.495V48.755H39.3Zm5.806-24.371a1.158,1.158,0,0,0-1.159,1.159V63.844A1.158,1.158,0,0,0,45.107,65h8.124a1.158,1.158,0,0,0,1.159-1.159V39.473a1.158,1.158,0,0,0-1.159-1.159Zm6.965,24.371H46.266V40.632h5.806Zm5.806-40.632a1.158,1.158,0,0,0-1.159,1.159V63.844A1.158,1.158,0,0,0,57.879,65H66a1.158,1.158,0,0,0,1.159-1.159V23.212A1.158,1.158,0,0,0,66,22.054Zm6.965,40.632H59.038v-38.3h5.806Z" transform="translate(-1)" fill="#006097"/>
</svg>
