<svg id="Layer_1" data-name="Layer 1" xmlns="http://www.w3.org/2000/svg" viewBox="0 0 731.46 206.82"><defs><style>.cls-1{fill:#006097;}</style></defs><title>logo 2</title><g id="g6701"><path id="path6703" class="cls-1" d="M112.41,272.18A103.41,103.41,0,0,0,9,375.59H9A103.41,103.41,0,0,0,112.41,479h0a103.41,103.41,0,0,0,0-206.82ZM134,284.33a9,9,0,0,1,1.73.26,7.87,7.87,0,0,1,5.25,4.16,7.15,7.15,0,0,1,.22,5.57,8.49,8.49,0,0,1-3.53,4.25,7.35,7.35,0,0,1-5.73.92,8.1,8.1,0,0,1-5.62-9A7.32,7.32,0,0,1,134,284.33ZM59.76,300.12a7.31,7.31,0,0,1,6.4,3.48,7.69,7.69,0,0,1-12.37,9.13,7.46,7.46,0,0,1,1.42-11A7.89,7.89,0,0,1,59.76,300.12Zm52.7,4.95A70.52,70.52,0,0,1,183,375.59h0A70.5,70.5,0,0,1,43.29,389.23h9.76a61,61,0,1,0,.67-30H44A70.51,70.51,0,0,1,112.46,305.07Zm77.34,29.57a7.55,7.55,0,0,1,7.47,4.75,7.47,7.47,0,0,1-4.33,10.24,7.71,7.71,0,0,1-6.09-14.15A7.37,7.37,0,0,1,189.8,334.64ZM68.24,347.88h11.4c8.25,0,11.7.6,15,2.7a13.94,13.94,0,0,1,6.3,12.07c0,5.18-1.73,8.1-6.15,10.43,3.6,1.5,5.17,2.55,6.75,4.65a16.29,16.29,0,0,1-4.5,22.5c-3.37,2.1-7.87,3.07-14,3.07H68.24V379.23H42c-.09-1.21-.15-2.42-.18-3.64,0-2.12.13-4.25.34-6.36H68.24Zm43.5,0h11.7l22.95,40.35V347.88h10.28V403.3H145.19L122,363V403.3H111.74ZM78.52,357.93v11.3H82.6c5.63-.15,8.06-1.88,8.06-5.68s-2.62-5.62-7.94-5.62Zm-53.34,9.22a6.77,6.77,0,0,1,.78,0,7.65,7.65,0,0,1,.3,15.28,7.66,7.66,0,0,1-1.08-15.29ZM78.52,379.3v14.18h5.09c7.2,0,10.28-2.1,10.28-6.9s-3.38-7.28-10.5-7.28Zm112.12,23.52a8.25,8.25,0,0,1,3,.42,7.68,7.68,0,1,1-6.35,14,8.07,8.07,0,0,1-3.47-10A7.88,7.88,0,0,1,190.64,402.82ZM58.45,435.73a7.52,7.52,0,0,1,5.23,1.65,8,8,0,0,1,1.19,10.5,7.65,7.65,0,1,1-11.75-9.78A8.09,8.09,0,0,1,58.45,435.73Zm73.16,15.09a8.1,8.1,0,0,1,8,5.35,7.69,7.69,0,1,1-14.84,4,8,8,0,0,1,5.49-9.12A7.33,7.33,0,0,1,131.61,450.82Z" transform="translate(-9 -272.18)"/><g id="g6705"><path id="path6707" class="cls-1" d="M249.15,418.7h23c9.57,0,16.57-1.52,21.82-4.79,7.11-4.31,11.2-12,11.2-20.88,0-5.37-1.52-10.61-4.2-14.11-2.45-3.27-4.9-4.9-10.5-7.24,6.88-3.61,9.56-8.16,9.56-16.21s-3.61-14.82-9.8-18.79c-5.13-3.26-10.49-4.19-23.33-4.19H249.15V418.7Zm16-15.29v-22h7.59c11.08,0,16.33,3.61,16.33,11.31,0,7.47-4.78,10.73-16,10.73Zm0-37.68V348.12h6.54c8.28,0,12.36,2.8,12.36,8.75,0,6.18-4.08,8.86-13.76,8.86Z" transform="translate(-9 -272.18)"/><path id="path6709" class="cls-1" d="M316.82,418.7h16V332.49h-16Z" transform="translate(-9 -272.18)"/><path id="path6711" class="cls-1" d="M358.27,418.7h16V347.77h16V332.49H342.29v15.28h16V418.7Z" transform="translate(-9 -272.18)"/><path id="path6713" class="cls-1" d="M398.39,418.7h16V356.05l36.05,62.65h17.85V332.49h-16v62.76l-35.7-62.76h-18.2V418.7Z" transform="translate(-9 -272.18)"/><path id="path6715" class="cls-1" d="M525.81,331c-25.66,0-45.5,19.48-45.5,44.68,0,24.85,20.07,44.56,45.39,44.56,25.08,0,44.44-19.48,44.44-44.68A44.36,44.36,0,0,0,525.81,331Zm-.23,15.4c16,0,28.46,12.83,28.46,29.4s-12.13,29-28.46,29a28.88,28.88,0,0,1-29.17-29.16c0-16.68,12.6-29.28,29.17-29.28Z" transform="translate(-9 -272.18)"/><path id="path6717" class="cls-1" d="M582.72,418.7h16v-33l22.63,33h19.71l-23.33-31.85c6.65-1.63,9.92-3.15,13.65-6.3,5.83-5,8.87-11.9,8.87-20.42,0-8.75-3.15-16.21-9.1-21.23-5.6-4.78-11.79-6.41-23.57-6.41H582.72V418.7Zm16-45v-25.9h7.11c7.47,0,11.55.81,14.12,3,2.8,2.22,4.2,5.6,4.2,9.8,0,9.1-5.25,13.06-17.62,13.06h-7.81Z" transform="translate(-9 -272.18)"/><path id="path6719" class="cls-1" d="M650.39,418.7h16V354.07l22.51,64.63H702l22.51-64.63V418.7h16V332.49H718.52l-23,65.32-23.21-65.32H650.39V418.7Z" transform="translate(-9 -272.18)"/></g></g></svg>